<svg version="1.1" xmlns="http://www.w3.org/2000/svg" viewBox="0 0 4489.999999999999 2395.4999999999995" width="4489.999999999999" height="2395.4999999999995">
  <!-- svg-source:excalidraw -->
  
  <defs>
    <style class="style-fonts">
      @font-face {
        font-family: "Virgil";
        src: url("https://excalidraw.com/Virgil.woff2");
      }
      @font-face {
        font-family: "Cascadia";
        src: url("https://excalidraw.com/Cascadia.woff2");
      }
      @font-face {
        font-family: "Assistant";
        src: url("https://excalidraw.com/Assistant-Regular.woff2");
      }
    </style>
    <clipPath id="373kzbOWJVOZC2iWEMrrx">
            <rect transform="translate(1446.837301587301 833.4087075884372) rotate(0 330.9999999999999 88.99999999999997)" width="661.9999999999998" height="177.99999999999994">
          </rect>
        </clipPath><clipPath id="vn_hXxv1MHp6SDdBO2KnH">
            <rect transform="translate(1362.6706349206343 1703.9444190131285) rotate(0 456.25 113.75)" width="912.5" height="227.5">
          </rect>
        </clipPath><clipPath id="uidL0hQlBpO7mGGDbfNc1">
            <rect transform="translate(10 30.5) rotate(0 2234.9999999999995 1177.4999999999998)" width="4469.999999999999" height="2354.9999999999995">
          </rect>
        </clipPath>
  </defs>
  <rect x="0" y="0" width="4489.999999999999" height="2395.4999999999995" fill="#ffffff"></rect><g clip-path="url(#373kzbOWJVOZC2iWEMrrx)"><g transform="translate(1506.9074309818302 875.0753742551024) rotate(0 251.92987060546875 17.5)"><text x="251.92987060546875" y="24.528" font-family="Virgil, Segoe UI Emoji" font-size="28px" fill="#1e1e1e" text-anchor="middle" style="white-space: pre;" direction="ltr" dominant-baseline="alphabetic">Register (post) =&gt; api/auth/register</text></g></g><g clip-path="url(#373kzbOWJVOZC2iWEMrrx)"><g transform="translate(1512.1146504235628 943.7420409217691) rotate(0 35.05598449707031 17.5)"><text x="35.05598449707031" y="24.528" font-family="Virgil, Segoe UI Emoji" font-size="28px" fill="#1e1e1e" text-anchor="middle" style="white-space: pre;" direction="ltr" dominant-baseline="alphabetic"> login</text></g></g><g clip-path="url(#373kzbOWJVOZC2iWEMrrx)"><g transform="translate(1594.7919931563106 945.4087075884356) rotate(0 40.71197509765625 17.5)"><text x="40.71197509765625" y="24.528" font-family="Virgil, Segoe UI Emoji" font-size="28px" fill="#1e1e1e" text-anchor="middle" style="white-space: pre;" direction="ltr" dominant-baseline="alphabetic">(post)</text></g></g><g clip-path="url(#373kzbOWJVOZC2iWEMrrx)"><g transform="translate(1704.5980310591424 940.4087075884356) rotate(0 115.90593719482422 17.5)"><text x="115.90593719482422" y="24.528" font-family="Virgil, Segoe UI Emoji" font-size="28px" fill="#1e1e1e" text-anchor="middle" style="white-space: pre;" direction="ltr" dominant-baseline="alphabetic">=&gt; api/auth/login</text></g></g><g transform="translate(1446.837301587301 812.9087075884372) rotate(0 40.04693603515625 8.75)"><text x="0" y="13.482" font-family="Assistant, Segoe UI Emoji" font-size="14px" fill="#999999" text-anchor="start" style="white-space: pre;" direction="ltr" dominant-baseline="alphabetic">ReviewerAuth</text></g><rect transform="translate(1446.837301587301 833.4087075884372) rotate(0 330.9999999999999 88.99999999999997)" width="661.9999999999998px" height="177.99999999999994px" rx="8" ry="8" fill="none" stroke="#bbb" stroke-width="2"></rect><g clip-path="url(#uidL0hQlBpO7mGGDbfNc1)"><g stroke-linecap="round" transform="translate(759.8373015872994 886.4087075884357) rotate(0 148.33333333333348 76.66666666666664)"><path d="M32 0 C105.38 4.79, 184.36 3.29, 264.67 0 C282.54 -3.22, 297.1 9.14, 296.67 32 C300.63 55.51, 297.52 74.89, 296.67 121.33 C297.54 142.81, 282.7 150.57, 264.67 153.33 C209.68 154.68, 150.78 156.22, 32 153.33 C14.11 152.6, 3.5 144.86, 0 121.33 C4.02 91.97, 3.35 65.05, 0 32 C-1.83 12.8, 11.45 0.41, 32 0" stroke="none" stroke-width="0" fill="#a5d8ff"></path><path d="M32 0 C123.81 2.28, 214.95 2.4, 264.67 0 M32 0 C99.86 0.53, 166.25 0.85, 264.67 0 M264.67 0 C284.75 1.51, 298.45 12.34, 296.67 32 M264.67 0 C285.89 1.25, 296.28 11.54, 296.67 32 M296.67 32 C295.32 53.45, 297.85 79.42, 296.67 121.33 M296.67 32 C295.67 55.77, 296.87 77.99, 296.67 121.33 M296.67 121.33 C295.63 143.13, 287.79 153.06, 264.67 153.33 M296.67 121.33 C294.97 140.59, 286.46 152.51, 264.67 153.33 M264.67 153.33 C183.63 154.44, 102.72 153.78, 32 153.33 M264.67 153.33 C192.66 151.56, 121.02 152.54, 32 153.33 M32 153.33 C8.89 151.71, -1.34 142.6, 0 121.33 M32 153.33 C12.08 152.12, 1.65 142.21, 0 121.33 M0 121.33 C0.66 95.69, 1.87 68.69, 0 32 M0 121.33 C0.24 86.2, 0.38 50.26, 0 32 M0 32 C-1.02 11.39, 12.14 -0.3, 32 0 M0 32 C-0.48 9.28, 11.5 1.56, 32 0" stroke="#1e1e1e" stroke-width="2" fill="none"></path></g></g><g clip-path="url(#uidL0hQlBpO7mGGDbfNc1)"><g transform="translate(857.7041635664661 954.7420409217691) rotate(0 44.63313802083337 17.5)"><text x="44.633138020833385" y="24.528" font-family="Virgil, Segoe UI Emoji" font-size="28px" fill="#1e1e1e" text-anchor="middle" style="white-space: pre;" direction="ltr" dominant-baseline="alphabetic">Auth</text></g></g><g clip-path="url(#uidL0hQlBpO7mGGDbfNc1)"><g stroke-linecap="round"><g transform="translate(1443.286461919928 840.2035082061454) rotate(0 1.2392735670937327 0.10608500958178979)"><path d="M-0.2 0.18 C0.28 0.23, 2.23 0.41, 2.68 0.32 M0.35 -0.04 C0.8 -0.08, 2.16 -0.13, 2.46 -0.13" stroke="#1e1e1e" stroke-width="2" fill="none"></path></g><g transform="translate(1443.286461919928 840.2035082061454) rotate(0 1.2392735670937327 0.10608500958178979)"><path d="M1.28 0.34 C1.6 0.24, 1.91 0.09, 2.46 -0.13 M1.28 0.34 C1.51 0.23, 1.78 0.16, 2.46 -0.13" stroke="#1e1e1e" stroke-width="2" fill="none"></path></g><g transform="translate(1443.286461919928 840.2035082061454) rotate(0 1.2392735670937327 0.10608500958178979)"><path d="M1.25 -0.53 C1.58 -0.41, 1.9 -0.34, 2.46 -0.13 M1.25 -0.53 C1.49 -0.46, 1.77 -0.35, 2.46 -0.13" stroke="#1e1e1e" stroke-width="2" fill="none"></path></g></g><mask></mask></g><g clip-path="url(#uidL0hQlBpO7mGGDbfNc1)"><g stroke-linecap="round" transform="translate(150.67063492063244 779.7420409217691) rotate(0 166.25 186.66666666666666)"><path d="M208.75 46.75 C232.83 76.39, 257.29 103.03, 290.75 140.25 C333.49 185.83, 332.31 187.39, 290.75 233.75 C261.33 264.12, 234.4 297.46, 208.75 326.58 C163.63 370.15, 168.05 375.17, 125.25 326.58 C101.29 301.34, 75.91 272.26, 41.75 233.75 C0.69 187.43, -3.52 186.67, 41.75 140.25 C66.77 110.31, 87.05 83.6, 125.25 46.75 C163.95 1.79, 167.07 0.41, 208.75 46.75" stroke="none" stroke-width="0" fill="#ffc9c9"></path><path d="M208.75 46.75 C240.4 83.05, 269.43 117.06, 290.75 140.25 M208.75 46.75 C231.27 73.27, 254.37 98.77, 290.75 140.25 M290.75 140.25 C331.98 188.71, 334.06 187.82, 290.75 233.75 M290.75 140.25 C332.67 188.27, 330.24 188.9, 290.75 233.75 M290.75 233.75 C268.19 257.96, 249.63 282.86, 208.75 326.58 M290.75 233.75 C261.54 265.48, 232.06 298.97, 208.75 326.58 M208.75 326.58 C165.76 374.08, 167.05 373.04, 125.25 326.58 M208.75 326.58 C165.73 372.39, 168.86 371.8, 125.25 326.58 M125.25 326.58 C106.24 303.44, 86.27 283.63, 41.75 233.75 M125.25 326.58 C98.74 297.86, 73.6 268.9, 41.75 233.75 M41.75 233.75 C-0.17 185.18, 1.39 185.65, 41.75 140.25 M41.75 233.75 C0.25 188.85, 0.62 185.38, 41.75 140.25 M41.75 140.25 C73.73 101.96, 106.86 64.79, 125.25 46.75 M41.75 140.25 C65 115.41, 88.96 90.34, 125.25 46.75 M125.25 46.75 C168.27 -0.58, 167.21 -0.56, 208.75 46.75 M125.25 46.75 C168.07 -1.8, 166.92 -0.46, 208.75 46.75" stroke="#1e1e1e" stroke-width="2" fill="none"></path></g></g><g clip-path="url(#uidL0hQlBpO7mGGDbfNc1)"><g transform="translate(211.22599889361572 948.1446303954149) rotate(0 100.27796936035156 22.5)"><text x="100.27796936035156" y="31.536" font-family="Virgil, Segoe UI Emoji" font-size="36px" fill="#1e1e1e" text-anchor="middle" style="white-space: pre;" direction="ltr" dominant-baseline="alphabetic">Entry Point</text></g></g><g clip-path="url(#uidL0hQlBpO7mGGDbfNc1)"><g stroke-linecap="round"><g transform="translate(476.08427723299656 975.8688807016454) rotate(0 134.52061781099667 -10.565996123391894)"><path d="M-0.98 1.16 C44.19 -2.5, 224.66 -18.67, 270.02 -22.29 M0.71 0.72 C45.77 -2.76, 223.85 -17.22, 268.86 -21.05" stroke="#1e1e1e" stroke-width="2" fill="none"></path></g><g transform="translate(476.08427723299656 975.8688807016454) rotate(0 134.52061781099667 -10.565996123391894)"><path d="M246.16 -10.59 C253.05 -13.35, 255.1 -13.7, 268.86 -21.05 M246.16 -10.59 C254.8 -14.61, 264.59 -18.63, 268.86 -21.05" stroke="#1e1e1e" stroke-width="2" fill="none"></path></g><g transform="translate(476.08427723299656 975.8688807016454) rotate(0 134.52061781099667 -10.565996123391894)"><path d="M244.74 -27.64 C251.9 -26.67, 254.26 -23.32, 268.86 -21.05 M244.74 -27.64 C254.08 -24.89, 264.43 -22.15, 268.86 -21.05" stroke="#1e1e1e" stroke-width="2" fill="none"></path></g></g><mask></mask></g><g clip-path="url(#uidL0hQlBpO7mGGDbfNc1)"><g stroke-linecap="round"><g transform="translate(469.58419561733535 984.7023056736163) rotate(0 122.97631716443482 114.98151709706173)"><path d="M-1.01 -0.47 C39.7 37.93, 203.43 191.52, 244.6 230.12 M0.66 -1.77 C41.74 36.88, 206.14 193.2, 246.97 231.73" stroke="#1e1e1e" stroke-width="2" fill="none"></path></g><g transform="translate(469.58419561733535 984.7023056736163) rotate(0 122.97631716443482 114.98151709706173)"><path d="M224.03 221.78 C230.7 224.13, 239.2 229.67, 246.97 231.73 M224.03 221.78 C233.52 225.88, 242.1 229.71, 246.97 231.73" stroke="#1e1e1e" stroke-width="2" fill="none"></path></g><g transform="translate(469.58419561733535 984.7023056736163) rotate(0 122.97631716443482 114.98151709706173)"><path d="M235.8 209.36 C238.6 215.66, 243.26 225.26, 246.97 231.73 M235.8 209.36 C240.69 218.5, 244.61 227.25, 246.97 231.73" stroke="#1e1e1e" stroke-width="2" fill="none"></path></g></g><mask></mask></g><g clip-path="url(#uidL0hQlBpO7mGGDbfNc1)"><g stroke-linecap="round" transform="translate(739.8373015873003 1153.0753742551024) rotate(0 154.9999999999999 70)"><path d="M32 0 C116.02 4, 194.36 2.88, 278 0 C301.39 -2.02, 310.75 12.33, 310 32 C306.24 50.51, 310.54 66.1, 310 108 C307.56 131.73, 298.92 140.54, 278 140 C195.85 141.03, 112.25 138.91, 32 140 C7.42 137.58, -2.92 129.79, 0 108 C-1.77 89.4, 3.48 67.03, 0 32 C3.54 13.21, 7.94 -1.64, 32 0" stroke="none" stroke-width="0" fill="#b2f2bb"></path><path d="M32 0 C113.09 0.55, 195.69 1.11, 278 0 M32 0 C120.73 0.7, 209.5 1.14, 278 0 M278 0 C298.01 1.45, 311.27 10.89, 310 32 M278 0 C300.23 1.91, 309.87 11.32, 310 32 M310 32 C308.44 58.78, 311.52 87.76, 310 108 M310 32 C311.37 51.85, 310.94 72.98, 310 108 M310 108 C308.65 129.03, 301.15 141.1, 278 140 M310 108 C311.42 127.12, 300.92 139.53, 278 140 M278 140 C182.55 141.63, 88.42 141.31, 32 140 M278 140 C210.61 140.18, 144.07 139.74, 32 140 M32 140 C11.94 138.03, -0.84 130.58, 0 108 M32 140 C10.74 138.65, 0.72 131.1, 0 108 M0 108 C-2.12 88.92, 0.88 67.57, 0 32 M0 108 C0.15 84.28, 0.1 60.35, 0 32 M0 32 C-1.51 12.03, 12.22 1.7, 32 0 M0 32 C-0.04 11.78, 11.67 -0.78, 32 0" stroke="#1e1e1e" stroke-width="2" fill="none"></path></g></g><g clip-path="url(#uidL0hQlBpO7mGGDbfNc1)"><g stroke-linecap="round"><g transform="translate(821.0424297924283 885.4087075884357) rotate(0 52.79202853803463 -60.12665878708158)"><path d="M1.19 2.29 C5.26 -11.58, 15.03 -62.49, 24.79 -82.41 C34.54 -102.33, 46.01 -110.54, 59.74 -117.23 C73.47 -123.92, 98.73 -121.84, 107.19 -122.55 M-1.6 1.07 C2.23 -13.64, 13.68 -66.76, 23.63 -86.19 C33.58 -105.62, 44.27 -109.78, 58.09 -115.51 C71.9 -121.25, 98.28 -119.75, 106.54 -120.6" stroke="#1e1e1e" stroke-width="2" fill="none"></path></g><g transform="translate(821.0424297924283 885.4087075884357) rotate(0 52.79202853803463 -60.12665878708158)"><path d="M84.98 -109.84 C92.21 -114.09, 96.04 -118.84, 105.67 -119.85 M82.87 -110.86 C90.32 -115.13, 97.75 -116.89, 105.84 -120.2" stroke="#1e1e1e" stroke-width="2" fill="none"></path></g><g transform="translate(821.0424297924283 885.4087075884357) rotate(0 52.79202853803463 -60.12665878708158)"><path d="M84.41 -126.93 C91.87 -125.82, 95.88 -125.21, 105.67 -119.85 M82.3 -127.95 C89.94 -127.16, 97.54 -123.85, 105.84 -120.2" stroke="#1e1e1e" stroke-width="2" fill="none"></path></g></g><mask></mask></g><g clip-path="url(#uidL0hQlBpO7mGGDbfNc1)"><g transform="translate(944.4373305789995 753.0753742551024) rotate(0 57.39997100830078 17.5)"><text x="57.39997100830078" y="24.528" font-family="Virgil, Segoe UI Emoji" font-size="28px" fill="#1e1e1e" text-anchor="middle" style="white-space: pre;" direction="ltr" dominant-baseline="alphabetic">Reviewer</text></g></g><g clip-path="url(#uidL0hQlBpO7mGGDbfNc1)"><g transform="translate(807.7993300907192 1211.4087075884372) rotate(0 73.03797149658203 17.5)"><text x="73.03797149658203" y="24.528" font-family="Virgil, Segoe UI Emoji" font-size="28px" fill="#1e1e1e" text-anchor="middle" style="white-space: pre;" direction="ltr" dominant-baseline="alphabetic">Categories</text></g></g><g clip-path="url(#uidL0hQlBpO7mGGDbfNc1)"><g stroke-linecap="round"><g transform="translate(1058.837301587301 1213.4087075884372) rotate(0 62.741732264310144 -40.991310607134366)"><path d="M-0.6 -0.51 C20.4 -13.76, 105.09 -66.15, 126.08 -79.57 M1.29 -1.82 C22.13 -15.44, 104.68 -68.39, 125.18 -81.47" stroke="#1e1e1e" stroke-width="2" fill="none"></path></g><g transform="translate(1058.837301587301 1213.4087075884372) rotate(0 62.741732264310144 -40.991310607134366)"><path d="M110 -61.6 C113.8 -67.46, 119.99 -74.74, 125.18 -81.47 M110 -61.6 C112.36 -65.27, 115.66 -70.78, 125.18 -81.47" stroke="#1e1e1e" stroke-width="2" fill="none"></path></g><g transform="translate(1058.837301587301 1213.4087075884372) rotate(0 62.741732264310144 -40.991310607134366)"><path d="M100.78 -76.01 C107.39 -77.42, 116.4 -80.3, 125.18 -81.47 M100.78 -76.01 C105.04 -76.54, 110.29 -78.99, 125.18 -81.47" stroke="#1e1e1e" stroke-width="2" fill="none"></path></g></g><mask></mask></g><g clip-path="url(#uidL0hQlBpO7mGGDbfNc1)"><g transform="translate(1208.6693404666955 1105.4087075884372) rotate(0 112.16796112060547 17.5)"><text x="112.16796112060547" y="24.528" font-family="Virgil, Segoe UI Emoji" font-size="28px" fill="#1e1e1e" text-anchor="middle" style="white-space: pre;" direction="ltr" dominant-baseline="alphabetic">getAllCategories</text></g></g><g clip-path="url(#uidL0hQlBpO7mGGDbfNc1)"><g transform="translate(1459.7133162967737 1109.4087075884372) rotate(0 33.123985290527344 17.5)"><text x="33.123985290527344" y="24.528" font-family="Virgil, Segoe UI Emoji" font-size="28px" fill="#1e1e1e" text-anchor="middle" style="white-space: pre;" direction="ltr" dominant-baseline="alphabetic">(get)</text></g></g><g clip-path="url(#uidL0hQlBpO7mGGDbfNc1)"><g transform="translate(1549.0653594486291 1109.4087075884372) rotate(0 128.77194213867188 17.5)"><text x="128.77194213867188" y="24.528" font-family="Virgil, Segoe UI Emoji" font-size="28px" fill="#1e1e1e" text-anchor="middle" style="white-space: pre;" direction="ltr" dominant-baseline="alphabetic">=&gt; api/Categories/</text></g></g><g clip-path="url(#uidL0hQlBpO7mGGDbfNc1)"><g stroke-linecap="round"><g transform="translate(1056.837301587301 1219.4087075884372) rotate(0 63.4061464756727 0.6311516493738338)"><path d="M2.49 2.29 C23.87 2.38, 105.71 -0.44, 126.41 -1.03 M0.4 1.06 C21.78 1.68, 104.48 2.02, 125.48 2.05" stroke="#1e1e1e" stroke-width="2" fill="none"></path></g><g transform="translate(1056.837301587301 1219.4087075884372) rotate(0 63.4061464756727 0.6311516493738338)"><path d="M103.6 12.24 C106.8 10.27, 112.17 8.32, 125.12 0.15 M101.47 10.77 C109.46 8.96, 115.91 4.73, 124.93 1.74" stroke="#1e1e1e" stroke-width="2" fill="none"></path></g><g transform="translate(1056.837301587301 1219.4087075884372) rotate(0 63.4061464756727 0.6311516493738338)"><path d="M103.65 -4.86 C106.74 -2.82, 112.11 -0.75, 125.12 0.15 M101.53 -6.33 C109.49 -3.28, 115.93 -2.64, 124.93 1.74" stroke="#1e1e1e" stroke-width="2" fill="none"></path></g></g><mask></mask></g><g clip-path="url(#uidL0hQlBpO7mGGDbfNc1)"><g transform="translate(1206.617346142965 1195.4087075884372) rotate(0 108.21995544433594 17.5)"><text x="108.21995544433594" y="24.528" font-family="Virgil, Segoe UI Emoji" font-size="28px" fill="#1e1e1e" text-anchor="middle" style="white-space: pre;" direction="ltr" dominant-baseline="alphabetic">getOneCategory</text></g></g><g clip-path="url(#uidL0hQlBpO7mGGDbfNc1)"><g transform="translate(1454.117391919332 1199.4087075884372) rotate(0 272.71990966796875 17.5)"><text x="272.71990966796875" y="24.528" font-family="Virgil, Segoe UI Emoji" font-size="28px" fill="#1e1e1e" text-anchor="middle" style="white-space: pre;" direction="ltr" dominant-baseline="alphabetic">(get) =&gt; api/Categories/getonecategory</text></g></g><g clip-path="url(#uidL0hQlBpO7mGGDbfNc1)"><g stroke-linecap="round"><g transform="translate(840.837301587301 1147.4087075884372) rotate(0 18.960118051444738 -25.657482801926754)"><path d="M-0.34 1.17 C-2.52 -6.83, -22.4 -40.1, -13.36 -48.54 C-4.33 -56.97, 42.53 -49.08, 53.87 -49.42 M1.68 0.73 C-0.58 -7.05, -22.54 -38.58, -13.98 -47.28 C-5.42 -55.98, 41.5 -51.04, 53.03 -51.47" stroke="#1e1e1e" stroke-width="2" fill="none"></path></g><g transform="translate(840.837301587301 1147.4087075884372) rotate(0 18.960118051444738 -25.657482801926754)"><path d="M29.29 -43.64 C37.85 -44.69, 41.6 -48.13, 53.03 -51.47 M29.29 -43.64 C38.07 -46.66, 45.52 -49.34, 53.03 -51.47" stroke="#1e1e1e" stroke-width="2" fill="none"></path></g><g transform="translate(840.837301587301 1147.4087075884372) rotate(0 18.960118051444738 -25.657482801926754)"><path d="M29.82 -60.74 C38.16 -57.04, 41.75 -55.75, 53.03 -51.47 M29.82 -60.74 C38.5 -57.81, 45.77 -54.55, 53.03 -51.47" stroke="#1e1e1e" stroke-width="2" fill="none"></path></g></g><mask></mask></g><g clip-path="url(#uidL0hQlBpO7mGGDbfNc1)"><g transform="translate(905.5593245975551 1081.4087075884372) rotate(0 61.277976989746094 17.5)"><text x="61.277976989746094" y="24.528" font-family="Virgil, Segoe UI Emoji" font-size="28px" fill="#1e1e1e" text-anchor="middle" style="white-space: pre;" direction="ltr" dominant-baseline="alphabetic">Category</text></g></g><g clip-path="url(#uidL0hQlBpO7mGGDbfNc1)"><g stroke-linecap="round" transform="translate(744.8373015873012 1363.4087075884372) rotate(0 148.9999999999999 68.99999999999994)"><path d="M32 0 C79.2 0.6, 128.27 -0.62, 266 0 C289.94 -0.87, 301.13 7.91, 298 32 C299.95 56.27, 296.62 79.28, 298 106 C299.55 127.85, 289.85 135.51, 266 138 C214.25 142.97, 161.34 139.94, 32 138 C10.79 139.52, 1.35 127.75, 0 106 C-2.24 85.81, 3.16 64.25, 0 32 C2.93 9.92, 12.55 3.57, 32 0" stroke="none" stroke-width="0" fill="#ffec99"></path><path d="M32 0 C94.88 1.01, 158.8 0.7, 266 0 M32 0 C103.99 0.59, 176.94 0.44, 266 0 M266 0 C287.81 1.66, 296.69 12.46, 298 32 M266 0 C289.3 -0.75, 300.23 12.85, 298 32 M298 32 C298.41 59.81, 298.96 88.99, 298 106 M298 32 C299.15 59.66, 297.67 86.28, 298 106 M298 106 C296.2 125.38, 286.53 138.07, 266 138 M298 106 C297.7 129.45, 288.92 137.67, 266 138 M266 138 C210.16 139.44, 153.68 139.14, 32 138 M266 138 C198.74 138.44, 129.23 138.59, 32 138 M32 138 C9.17 139.5, -0.6 127.9, 0 106 M32 138 C9.67 138.54, -1.41 129.61, 0 106 M0 106 C1.67 84.43, -0.31 66.4, 0 32 M0 106 C0.68 82.2, 0.39 58.15, 0 32 M0 32 C-0.18 11.42, 9.08 1.77, 32 0 M0 32 C2.08 9.93, 11.8 -1.95, 32 0" stroke="#1e1e1e" stroke-width="2" fill="none"></path></g></g><g clip-path="url(#uidL0hQlBpO7mGGDbfNc1)"><g transform="translate(819.3493255130825 1423.4087075884372) rotate(0 61.48797607421875 17.5)"><text x="61.48797607421875" y="24.528" font-family="Virgil, Segoe UI Emoji" font-size="28px" fill="#1e1e1e" text-anchor="middle" style="white-space: pre;" direction="ltr" dominant-baseline="alphabetic">Products</text></g></g><g clip-path="url(#uidL0hQlBpO7mGGDbfNc1)"><g stroke-linecap="round"><g transform="translate(2055.0035380935087 832.4087075884372) rotate(0 88.20773966918173 -153.7420823382252)"><path d="M-0.91 -0.56 C28.67 -51.93, 147.67 -256.24, 177.33 -307.63 M0.81 1.77 C30.21 -49.99, 146.33 -257.66, 176.12 -309.25" stroke="#1e1e1e" stroke-width="2" fill="none"></path></g><g transform="translate(2055.0035380935087 832.4087075884372) rotate(0 88.20773966918173 -153.7420823382252)"><path d="M171.97 -284.6 C172.09 -292.4, 175.79 -299.87, 176.12 -309.25 M171.97 -284.6 C172.99 -291.7, 173.12 -298.2, 176.12 -309.25" stroke="#1e1e1e" stroke-width="2" fill="none"></path></g><g transform="translate(2055.0035380935087 832.4087075884372) rotate(0 88.20773966918173 -153.7420823382252)"><path d="M157.09 -293.03 C161.47 -298.33, 169.39 -303.41, 176.12 -309.25 M157.09 -293.03 C162.2 -297.84, 166.37 -302.04, 176.12 -309.25" stroke="#1e1e1e" stroke-width="2" fill="none"></path></g></g><mask></mask></g><g clip-path="url(#uidL0hQlBpO7mGGDbfNc1)"><g stroke-linecap="round" transform="translate(2242.8373015873008 307.40870758843755) rotate(0 186 144.62499999999991)"><path d="M32 0 C130.11 -3.72, 232.29 -2.75, 340 0 C360.68 2.46, 371.55 13.29, 372 32 C371.92 110.22, 373.3 188.77, 372 257.25 C368.9 278.61, 363.34 287.51, 340 289.25 C236.15 288.39, 131.79 287.11, 32 289.25 C7.83 286.91, 0.42 279.69, 0 257.25 C-2.42 209.77, -2.88 159.68, 0 32 C1.47 7.91, 13.83 2.42, 32 0" stroke="none" stroke-width="0" fill="#a5d8ff"></path><path d="M32 0 C155.58 -0.4, 278.04 -1.17, 340 0 M32 0 C102.07 0.11, 171.43 -1, 340 0 M340 0 C360.69 1.95, 373.31 9.34, 372 32 M340 0 C361.01 -0.14, 373.66 9.81, 372 32 M372 32 C369.7 88.01, 369.79 141.84, 372 257.25 M372 32 C371.76 92.71, 372.13 152.49, 372 257.25 M372 257.25 C370.37 278.65, 359.65 290.47, 340 289.25 M372 257.25 C370.83 279, 363.52 288.79, 340 289.25 M340 289.25 C231.34 288.75, 126.3 288.65, 32 289.25 M340 289.25 C253.02 287.72, 165.23 287.01, 32 289.25 M32 289.25 C12.4 288.91, -0.68 278.21, 0 257.25 M32 289.25 C12.12 288.54, -0.68 278.39, 0 257.25 M0 257.25 C1.46 181.85, -0.04 104.46, 0 32 M0 257.25 C0.05 194.17, 0.41 133.4, 0 32 M0 32 C1.86 9.95, 12 -1.65, 32 0 M0 32 C0.11 12.35, 10.52 -1.55, 32 0" stroke="#1e1e1e" stroke-width="4" fill="none"></path></g></g><g clip-path="url(#uidL0hQlBpO7mGGDbfNc1)"><g transform="translate(2354.3793929569297 425.0474272046398) rotate(0 65.7079086303711 26.305640191898874)"><text x="65.7079086303711" y="36.86998529296543" font-family="Virgil, Segoe UI Emoji" font-size="42.089024307038166px" fill="#1e1e1e" text-anchor="middle" style="white-space: pre;" direction="ltr" dominant-baseline="alphabetic">Review</text></g></g><g clip-path="url(#uidL0hQlBpO7mGGDbfNc1)"><g stroke-linecap="round"><g transform="translate(2382.1305465843598 297.40870758843755) rotate(0 7.978085276176316 -42.30904250177554)"><path d="M-0.65 -1.06 C-4.62 -8.98, -30.44 -33.39, -23.74 -47.13 C-17.03 -60.88, 29.02 -77.2, 39.59 -83.53 M1.22 1 C-2.96 -6.86, -31.7 -31.76, -24.92 -46.19 C-18.14 -60.63, 31.18 -79.23, 41.91 -85.62" stroke="#1e1e1e" stroke-width="2" fill="none"></path></g><g transform="translate(2382.1305465843598 297.40870758843755) rotate(0 7.978085276176316 -42.30904250177554)"><path d="M24.45 -67.73 C27.98 -73.86, 33.2 -80.46, 41.91 -85.62 M24.45 -67.73 C30.95 -74.1, 37.36 -80.51, 41.91 -85.62" stroke="#1e1e1e" stroke-width="2" fill="none"></path></g><g transform="translate(2382.1305465843598 297.40870758843755) rotate(0 7.978085276176316 -42.30904250177554)"><path d="M17.03 -83.13 C22.89 -84.5, 30.39 -86.38, 41.91 -85.62 M17.03 -83.13 C25.92 -84.21, 34.85 -85.39, 41.91 -85.62" stroke="#1e1e1e" stroke-width="2" fill="none"></path></g></g><mask></mask></g><g clip-path="url(#uidL0hQlBpO7mGGDbfNc1)"><g transform="translate(2441.115324353414 197.40870758843755) rotate(0 43.72197723388672 17.5)"><text x="43.72197723388672" y="24.528" font-family="Virgil, Segoe UI Emoji" font-size="28px" fill="#1e1e1e" text-anchor="middle" style="white-space: pre;" direction="ltr" dominant-baseline="alphabetic">Review</text></g></g><g clip-path="url(#uidL0hQlBpO7mGGDbfNc1)"><g stroke-linecap="round"><g transform="translate(2616.8373015873008 389.7749316426466) rotate(0 47.69784176948479 -79.20792807994167)"><path d="M-0.17 0.75 C15.76 -25.63, 78.98 -131.11, 94.96 -157.48 M-1.72 0.09 C14.63 -26.68, 81.04 -132.59, 97.12 -159.16" stroke="#1e1e1e" stroke-width="2" fill="none"></path></g><g transform="translate(2616.8373015873008 389.7749316426466) rotate(0 47.69784176948479 -79.20792807994167)"><path d="M92.05 -134.68 C94.39 -142.43, 95.78 -147.26, 97.12 -159.16 M92.05 -134.68 C94.38 -143.87, 96.43 -152.04, 97.12 -159.16" stroke="#1e1e1e" stroke-width="2" fill="none"></path></g><g transform="translate(2616.8373015873008 389.7749316426466) rotate(0 47.69784176948479 -79.20792807994167)"><path d="M77.5 -143.66 C83.47 -149.18, 88.44 -151.8, 97.12 -159.16 M77.5 -143.66 C85.3 -149.58, 92.73 -154.42, 97.12 -159.16" stroke="#1e1e1e" stroke-width="2" fill="none"></path></g></g><mask></mask></g><g clip-path="url(#uidL0hQlBpO7mGGDbfNc1)"><g transform="translate(2725.9593566410117 197.40870758843755) rotate(0 108.87794494628906 17.5)"><text x="108.87794494628906" y="24.528" font-family="Virgil, Segoe UI Emoji" font-size="28px" fill="#1e1e1e" text-anchor="middle" style="white-space: pre;" direction="ltr" dominant-baseline="alphabetic">AddBrandReview</text></g></g><g clip-path="url(#uidL0hQlBpO7mGGDbfNc1)"><g transform="translate(2968.0874541751914 199.40870758843755) rotate(0 316.7498474121094 17.5)"><text x="316.7498474121094" y="24.528" font-family="Virgil, Segoe UI Emoji" font-size="28px" fill="#1e1e1e" text-anchor="middle" style="white-space: pre;" direction="ltr" dominant-baseline="alphabetic">(post) =&gt; api/reviews/addbrandreview/:brandId</text></g></g><g clip-path="url(#uidL0hQlBpO7mGGDbfNc1)"><g stroke-linecap="round"><g transform="translate(2616.8373015873008 374.32588561327145) rotate(0 49.64496526993939 -40.69702487556492)"><path d="M0.65 0.55 C17.36 -13.27, 83.24 -68.41, 99.75 -81.95 M-0.46 -0.2 C16.11 -13.35, 82.12 -66.98, 98.67 -80.72" stroke="#1e1e1e" stroke-width="2" fill="none"></path></g><g transform="translate(2616.8373015873008 374.32588561327145) rotate(0 49.64496526993939 -40.69702487556492)"><path d="M85.92 -59.22 C89.95 -65.28, 91.32 -70.87, 98.67 -80.72 M85.92 -59.22 C90.88 -67.5, 94.82 -73.85, 98.67 -80.72" stroke="#1e1e1e" stroke-width="2" fill="none"></path></g><g transform="translate(2616.8373015873008 374.32588561327145) rotate(0 49.64496526993939 -40.69702487556492)"><path d="M75.08 -72.44 C82.02 -75.15, 86.19 -77.33, 98.67 -80.72 M75.08 -72.44 C83.98 -76.03, 91.78 -77.67, 98.67 -80.72" stroke="#1e1e1e" stroke-width="2" fill="none"></path></g></g><mask></mask></g><g clip-path="url(#uidL0hQlBpO7mGGDbfNc1)"><g transform="translate(2732.113355969625 257.40870758843755) rotate(0 122.72394561767578 17.5)"><text x="122.72394561767578" y="24.528" font-family="Virgil, Segoe UI Emoji" font-size="28px" fill="#1e1e1e" text-anchor="middle" style="white-space: pre;" direction="ltr" dominant-baseline="alphabetic">AddProductReview</text></g></g><g clip-path="url(#uidL0hQlBpO7mGGDbfNc1)"><g transform="translate(2990.967489575582 257.40870758843755) rotate(0 345.86981201171875 17.5)"><text x="345.86981201171875" y="24.528" font-family="Virgil, Segoe UI Emoji" font-size="28px" fill="#1e1e1e" text-anchor="middle" style="white-space: pre;" direction="ltr" dominant-baseline="alphabetic">(post) =&gt; api/reviews/addproductreview/:productId</text></g></g><g clip-path="url(#uidL0hQlBpO7mGGDbfNc1)"><g stroke-linecap="round"><g transform="translate(2618.8373015873008 357.38058052027077) rotate(0 47.73455418891737 -6.886097606174985)"><path d="M0.11 -0.5 C16.18 -2.35, 80.7 -9.64, 96.76 -11.43 M-1.29 -1.81 C14.66 -3.98, 80.01 -11.37, 96.21 -13.27" stroke="#1e1e1e" stroke-width="2" fill="none"></path></g><g transform="translate(2618.8373015873008 357.38058052027077) rotate(0 47.73455418891737 -6.886097606174985)"><path d="M73.86 -2.09 C80.39 -4.5, 89.45 -8.67, 96.21 -13.27 M73.86 -2.09 C81.58 -6.11, 90.43 -11.05, 96.21 -13.27" stroke="#1e1e1e" stroke-width="2" fill="none"></path></g><g transform="translate(2618.8373015873008 357.38058052027077) rotate(0 47.73455418891737 -6.886097606174985)"><path d="M71.9 -19.07 C79.02 -15.92, 88.73 -14.52, 96.21 -13.27 M71.9 -19.07 C80.28 -17.01, 89.83 -15.85, 96.21 -13.27" stroke="#1e1e1e" stroke-width="2" fill="none"></path></g></g><mask></mask></g><g clip-path="url(#uidL0hQlBpO7mGGDbfNc1)"><g transform="translate(2728.4973281375937 321.40870758843744) rotate(0 46.33997344970703 17.5)"><text x="46.33997344970703" y="24.528" font-family="Virgil, Segoe UI Emoji" font-size="28px" fill="#1e1e1e" text-anchor="middle" style="white-space: pre;" direction="ltr" dominant-baseline="alphabetic">Addlike</text></g></g><g clip-path="url(#uidL0hQlBpO7mGGDbfNc1)"><g transform="translate(2846.811453198629 319.40870758843744) rotate(0 264.0258483886719 17.5)"><text x="264.0258483886719" y="24.528" font-family="Virgil, Segoe UI Emoji" font-size="28px" fill="#1e1e1e" text-anchor="middle" style="white-space: pre;" direction="ltr" dominant-baseline="alphabetic">(post) =&gt; api/reviews/addlike/:reviewId</text></g></g><g clip-path="url(#uidL0hQlBpO7mGGDbfNc1)"><g stroke-linecap="round"><g transform="translate(2615.8373015873008 352.6681158851602) rotate(0 41.52247421815989 20.697008320324244)"><path d="M-0.53 0.08 C13.53 6.68, 69.61 34.09, 83.58 40.77 M1.39 -0.93 C15.41 6.39, 69.39 35.31, 82.93 42.32" stroke="#1e1e1e" stroke-width="2" fill="none"></path></g><g transform="translate(2615.8373015873008 352.6681158851602) rotate(0 41.52247421815989 20.697008320324244)"><path d="M58.17 38.92 C64.13 40.79, 69.84 41.09, 82.93 42.32 M58.17 38.92 C63.83 39.63, 71.5 40.73, 82.93 42.32" stroke="#1e1e1e" stroke-width="2" fill="none"></path></g><g transform="translate(2615.8373015873008 352.6681158851602) rotate(0 41.52247421815989 20.697008320324244)"><path d="M66.15 23.79 C70.39 29.17, 74.23 33.01, 82.93 42.32 M66.15 23.79 C69.86 28.23, 75.53 33.11, 82.93 42.32" stroke="#1e1e1e" stroke-width="2" fill="none"></path></g></g><mask></mask></g><g clip-path="url(#uidL0hQlBpO7mGGDbfNc1)"><g transform="translate(2723.863340710836 379.40870758843744) rotate(0 64.97396087646484 17.5)"><text x="64.97396087646484" y="24.528" font-family="Virgil, Segoe UI Emoji" font-size="28px" fill="#1e1e1e" text-anchor="middle" style="white-space: pre;" direction="ltr" dominant-baseline="alphabetic">Adddislike</text></g></g><g clip-path="url(#uidL0hQlBpO7mGGDbfNc1)"><g transform="translate(2843.177450513082 381.40870758843744) rotate(0 289.65985107421875 17.5)"><text x="289.65985107421875" y="24.528" font-family="Virgil, Segoe UI Emoji" font-size="28px" fill="#1e1e1e" text-anchor="middle" style="white-space: pre;" direction="ltr" dominant-baseline="alphabetic"> (post) =&gt; api/reviews/adddislike/:reviewId</text></g></g><g clip-path="url(#uidL0hQlBpO7mGGDbfNc1)"><g stroke-linecap="round"><g transform="translate(2615.8373015873008 357.4157524177484) rotate(0 39.87133791656697 44.09555743369549)"><path d="M1.16 1 C14.35 15.57, 66.54 72.15, 79.43 86.8 M0.32 0.47 C13.35 15.2, 65.85 73.28, 78.7 87.72" stroke="#1e1e1e" stroke-width="2" fill="none"></path></g><g transform="translate(2615.8373015873008 357.4157524177484) rotate(0 39.87133791656697 44.09555743369549)"><path d="M56.65 75.95 C65.48 80.31, 69.08 82.57, 78.7 87.72 M56.65 75.95 C64.57 80.18, 74.4 84.72, 78.7 87.72" stroke="#1e1e1e" stroke-width="2" fill="none"></path></g><g transform="translate(2615.8373015873008 357.4157524177484) rotate(0 39.87133791656697 44.09555743369549)"><path d="M69.37 64.52 C73.98 72.75, 73.39 78.77, 78.7 87.72 M69.37 64.52 C72.55 73.03, 77.55 81.9, 78.7 87.72" stroke="#1e1e1e" stroke-width="2" fill="none"></path></g></g><mask></mask></g><g clip-path="url(#uidL0hQlBpO7mGGDbfNc1)"><g transform="translate(2731.1814788333945 429.40870758843744) rotate(0 371.40582275390625 17.5)"><text x="371.40582275390625" y="24.528" font-family="Virgil, Segoe UI Emoji" font-size="28px" fill="#1e1e1e" text-anchor="middle" style="white-space: pre;" direction="ltr" dominant-baseline="alphabetic">EditReview (patch) =&gt; api/reviews/editreview/:reviewId</text></g></g><g clip-path="url(#uidL0hQlBpO7mGGDbfNc1)"><g stroke-linecap="round"><g transform="translate(2616.4801587301586 358.82638979848525) rotate(0 34.530216481457465 71.2599892935051)"><path d="M0.15 0.22 C11.88 23.85, 58.63 118.49, 70.29 142.05 M-1.22 -0.7 C10.37 23.05, 57.72 119.38, 69.49 143.22" stroke="#1e1e1e" stroke-width="2" fill="none"></path></g><g transform="translate(2616.4801587301586 358.82638979848525) rotate(0 34.530216481457465 71.2599892935051)"><path d="M51.44 125.92 C57.2 131.5, 61.01 136.3, 69.49 143.22 M51.44 125.92 C54.32 130.01, 58.21 132.76, 69.49 143.22" stroke="#1e1e1e" stroke-width="2" fill="none"></path></g><g transform="translate(2616.4801587301586 358.82638979848525) rotate(0 34.530216481457465 71.2599892935051)"><path d="M66.78 118.37 C68.01 126.21, 67.28 133.25, 69.49 143.22 M66.78 118.37 C66.48 123.86, 67.22 128.15, 69.49 143.22" stroke="#1e1e1e" stroke-width="2" fill="none"></path></g></g><mask></mask></g><g clip-path="url(#uidL0hQlBpO7mGGDbfNc1)"><g transform="translate(2698.670344277033 485.32537425510395) rotate(0 415.309814453125 17.5)"><text x="415.309814453125" y="24.528" font-family="Virgil, Segoe UI Emoji" font-size="28px" fill="#1e1e1e" text-anchor="middle" style="white-space: pre;" direction="ltr" dominant-baseline="alphabetic">getBrandReview (get)  =&gt; api/reviews/brandReviews/:brandId</text></g></g><g clip-path="url(#uidL0hQlBpO7mGGDbfNc1)"><g stroke-linecap="round"><g transform="translate(2617.7301587301586 372.82537425510395) rotate(0 30.099951195744772 99.61416979712433)"><path d="M0.11 1.05 C10.13 34.04, 49.41 164.5, 59.2 197.26 M-1.3 0.55 C9.19 33.79, 51.09 165.6, 61.5 198.68" stroke="#1e1e1e" stroke-width="2" fill="none"></path></g><g transform="translate(2617.7301587301586 372.82537425510395) rotate(0 30.099951195744772 99.61416979712433)"><path d="M46.26 178.86 C51.27 181.92, 52.52 185.74, 61.5 198.68 M46.26 178.86 C51.21 185.27, 54.71 190.96, 61.5 198.68" stroke="#1e1e1e" stroke-width="2" fill="none"></path></g><g transform="translate(2617.7301587301586 372.82537425510395) rotate(0 30.099951195744772 99.61416979712433)"><path d="M62.56 173.7 C63.92 177.92, 61.55 182.89, 61.5 198.68 M62.56 173.7 C62.43 181.69, 60.88 188.98, 61.5 198.68" stroke="#1e1e1e" stroke-width="2" fill="none"></path></g></g><mask></mask></g><g clip-path="url(#uidL0hQlBpO7mGGDbfNc1)"><g transform="translate(2701.890672471788 540.1468028265324) rotate(0 447.80377197265625 17.5)"><text x="447.80377197265625" y="24.528" font-family="Virgil, Segoe UI Emoji" font-size="28px" fill="#1e1e1e" text-anchor="middle" style="white-space: pre;" direction="ltr" dominant-baseline="alphabetic">getProductReview (get) =&gt; api/reviews/productreviews/:productId</text></g></g><g clip-path="url(#uidL0hQlBpO7mGGDbfNc1)"><g stroke-linecap="round"><g transform="translate(2618.9801587301586 379.07537425510384) rotate(0 26.089552981867435 127.98086728614757)"><path d="M0.09 0.15 C8.97 42.79, 44.69 212.79, 53.49 255.58 M-1.31 -0.81 C7.47 41.99, 44.12 214.16, 53.07 256.77" stroke="#1e1e1e" stroke-width="2" fill="none"></path></g><g transform="translate(2618.9801587301586 379.07537425510384) rotate(0 26.089552981867435 127.98086728614757)"><path d="M39.84 235.56 C44.3 244.01, 47.18 249.88, 53.07 256.77 M39.84 235.56 C44.28 243.77, 49.71 249.75, 53.07 256.77" stroke="#1e1e1e" stroke-width="2" fill="none"></path></g><g transform="translate(2618.9801587301586 379.07537425510384) rotate(0 26.089552981867435 127.98086728614757)"><path d="M56.57 232.02 C55.66 241.62, 53.17 248.63, 53.07 256.77 M56.57 232.02 C55.11 241.61, 54.63 248.84, 53.07 256.77" stroke="#1e1e1e" stroke-width="2" fill="none"></path></g></g><mask></mask></g><g clip-path="url(#uidL0hQlBpO7mGGDbfNc1)"><g transform="translate(2685.90835086883 599.075374255104) rotate(0 364.3218078613281 17.5)"><text x="364.3218078613281" y="24.528" font-family="Virgil, Segoe UI Emoji" font-size="28px" fill="#1e1e1e" text-anchor="middle" style="white-space: pre;" direction="ltr" dominant-baseline="alphabetic">getPopularReview (get) =&gt; api/reviews/popularreviews</text></g></g><g clip-path="url(#uidL0hQlBpO7mGGDbfNc1)"><g stroke-linecap="round"><g transform="translate(2615.8373015873008 405.66925180612157) rotate(0 21.821984755035153 145.39021864483027)"><path d="M-0.49 0.5 C6.84 48.92, 36.69 241.69, 44.13 290.01 M1.45 -0.29 C8.69 48.31, 36.63 242.45, 43.71 291.07" stroke="#1e1e1e" stroke-width="2" fill="none"></path></g><g transform="translate(2615.8373015873008 405.66925180612157) rotate(0 21.821984755035153 145.39021864483027)"><path d="M31.88 269.04 C36.33 277.67, 37.72 284.63, 43.71 291.07 M31.88 269.04 C35.16 274.09, 37.65 281.16, 43.71 291.07" stroke="#1e1e1e" stroke-width="2" fill="none"></path></g><g transform="translate(2615.8373015873008 405.66925180612157) rotate(0 21.821984755035153 145.39021864483027)"><path d="M48.81 266.59 C47.92 275.93, 43.99 283.65, 43.71 291.07 M48.81 266.59 C47.76 272.28, 45.91 279.98, 43.71 291.07" stroke="#1e1e1e" stroke-width="2" fill="none"></path></g></g><mask></mask></g><g clip-path="url(#uidL0hQlBpO7mGGDbfNc1)"><g transform="translate(2681.5049215649797 662.825374255104) rotate(0 411.40380859375 17.5)"><text x="411.40380859375" y="24.528" font-family="Virgil, Segoe UI Emoji" font-size="28px" fill="#1e1e1e" text-anchor="middle" style="white-space: pre;" direction="ltr" dominant-baseline="alphabetic">getReviewRate (get) =&gt; api/reviews/getreviewrate/:reviewId</text></g></g><g clip-path="url(#uidL0hQlBpO7mGGDbfNc1)"><g stroke-linecap="round"><g transform="translate(2616.4801587301586 445.3253742551042) rotate(0 10.417240678519 156.88668926313974)"><path d="M-1.12 1.18 C2.59 53.16, 18.09 261.31, 21.95 313.02 M0.5 0.75 C4.13 52.89, 17.84 259.27, 21.37 311.17" stroke="#1e1e1e" stroke-width="2" fill="none"></path></g><g transform="translate(2616.4801587301586 445.3253742551042) rotate(0 10.417240678519 156.88668926313974)"><path d="M11.26 288.3 C16.24 295.89, 17.94 302.38, 21.37 311.17 M11.26 288.3 C13.89 293.14, 15.42 297.59, 21.37 311.17" stroke="#1e1e1e" stroke-width="2" fill="none"></path></g><g transform="translate(2616.4801587301586 445.3253742551042) rotate(0 10.417240678519 156.88668926313974)"><path d="M28.33 287.16 C28.59 294.9, 25.57 301.71, 21.37 311.17 M28.33 287.16 C27.37 292.24, 25.33 296.94, 21.37 311.17" stroke="#1e1e1e" stroke-width="2" fill="none"></path></g></g><mask></mask></g><g clip-path="url(#uidL0hQlBpO7mGGDbfNc1)"><g transform="translate(2672.830910334511 723.1825171122468) rotate(0 391.32781982421875 17.5)"><text x="391.32781982421875" y="24.528" font-family="Virgil, Segoe UI Emoji" font-size="28px" fill="#1e1e1e" text-anchor="middle" style="white-space: pre;" direction="ltr" dominant-baseline="alphabetic">deleteReview (delete) =&gt;api/review/deletereview/:reviewId</text></g></g><g clip-path="url(#uidL0hQlBpO7mGGDbfNc1)"><g stroke-linecap="round"><g transform="translate(1043.9087301587304 1378.2539440942178) rotate(0 44.59584291554518 -22.229761805444582)"><path d="M0.37 -0.45 C15.53 -7.43, 75.12 -34.98, 90.09 -42.22 M-0.9 -1.73 C14.18 -9.03, 74.12 -37.12, 89.18 -44.01" stroke="#1e1e1e" stroke-width="2" fill="none"></path></g><g transform="translate(1043.9087301587304 1378.2539440942178) rotate(0 44.59584291554518 -22.229761805444582)"><path d="M71.48 -26.36 C74.84 -30.32, 80.71 -34.23, 89.18 -44.01 M71.48 -26.36 C76.25 -29.58, 79.34 -34.13, 89.18 -44.01" stroke="#1e1e1e" stroke-width="2" fill="none"></path></g><g transform="translate(1043.9087301587304 1378.2539440942178) rotate(0 44.59584291554518 -22.229761805444582)"><path d="M64.28 -41.88 C69.25 -42.3, 76.76 -42.65, 89.18 -44.01 M64.28 -41.88 C70.51 -41.74, 75.15 -42.96, 89.18 -44.01" stroke="#1e1e1e" stroke-width="2" fill="none"></path></g></g><mask></mask></g><g clip-path="url(#uidL0hQlBpO7mGGDbfNc1)"><g transform="translate(1141.7254241458954 1309.6825155227893) rotate(0 262.61187744140625 17.5)"><text x="262.61187744140625" y="24.528" font-family="Virgil, Segoe UI Emoji" font-size="28px" fill="#1e1e1e" text-anchor="middle" style="white-space: pre;" direction="ltr" dominant-baseline="alphabetic">getAllProducts (get) =&gt; api/products/</text></g></g><g clip-path="url(#uidL0hQlBpO7mGGDbfNc1)"><g stroke-linecap="round"><g transform="translate(1043.9087301587301 1383.9682298085036) rotate(0 42.242052361553306 5.6039224303553965)"><path d="M1.12 -0.39 C15.24 1.39, 70.22 9.53, 84.23 11.35 M0.25 -1.63 C14.25 0.28, 69.15 10.68, 83.25 12.84" stroke="#1e1e1e" stroke-width="2" fill="none"></path></g><g transform="translate(1043.9087301587301 1383.9682298085036) rotate(0 42.242052361553306 5.6039224303553965)"><path d="M58.65 17.26 C64.4 15.79, 71.33 16.22, 83.25 12.84 M58.65 17.26 C64.27 16.8, 69.58 15.43, 83.25 12.84" stroke="#1e1e1e" stroke-width="2" fill="none"></path></g><g transform="translate(1043.9087301587301 1383.9682298085036) rotate(0 42.242052361553306 5.6039224303553965)"><path d="M61.56 0.41 C66.66 3.36, 72.82 8.19, 83.25 12.84 M61.56 0.41 C66.49 3.72, 71.14 6.12, 83.25 12.84" stroke="#1e1e1e" stroke-width="2" fill="none"></path></g></g><mask></mask></g><g clip-path="url(#uidL0hQlBpO7mGGDbfNc1)"><g transform="translate(1138.7111506386407 1373.9682298085036) rotate(0 310.911865234375 17.5)"><text x="310.911865234375" y="24.528" font-family="Virgil, Segoe UI Emoji" font-size="28px" fill="#1e1e1e" text-anchor="middle" style="white-space: pre;" direction="ltr" dominant-baseline="alphabetic">getOneProduct (get) api/products/:productId</text></g></g><g clip-path="url(#uidL0hQlBpO7mGGDbfNc1)"><g stroke-linecap="round"><g transform="translate(822.143554846647 1527.6149830552538) rotate(0 10.511031089099106 133.7576283867737)"><path d="M1.54 0.54 C4.32 10.85, 16.2 16.71, 18.7 61.12 C21.21 105.52, 16.92 232.58, 16.55 266.95 M3.26 -0.23 C5.93 9.83, 15.73 14.77, 17.83 59.43 C19.93 104.09, 16.03 232.96, 15.86 267.74" stroke="#1e1e1e" stroke-width="2" fill="none"></path></g><g transform="translate(822.143554846647 1527.6149830552538) rotate(0 10.511031089099106 133.7576283867737)"><path d="M7.71 244.11 C10.62 250.7, 13.28 256.96, 15.86 267.74 M7.71 244.11 C9.7 249.77, 11.71 255.37, 15.86 267.74" stroke="#1e1e1e" stroke-width="2" fill="none"></path></g><g transform="translate(822.143554846647 1527.6149830552538) rotate(0 10.511031089099106 133.7576283867737)"><path d="M24.81 244.4 C23.17 250.79, 21.28 256.97, 15.86 267.74 M24.81 244.4 C23.09 249.92, 21.39 255.45, 15.86 267.74" stroke="#1e1e1e" stroke-width="2" fill="none"></path></g></g><mask></mask></g><g clip-path="url(#uidL0hQlBpO7mGGDbfNc1)"><g stroke-linecap="round" transform="translate(781.8373015873017 1820.8253726656462) rotate(0 155.71428571428555 66.42857142857139)"><path d="M32 0 C88.91 -1.74, 141.9 -1.77, 279.43 0 C299.61 1.59, 311.19 12.95, 311.43 32 C313.82 49.47, 309.01 71.91, 311.43 100.86 C311.53 120.54, 299.46 129.91, 279.43 132.86 C187.49 133.46, 98.61 131.24, 32 132.86 C10.16 135.73, -0.5 121.82, 0 100.86 C-2.67 84.9, -3.96 64.08, 0 32 C1.53 10.35, 11.96 3.25, 32 0" stroke="none" stroke-width="0" fill="#ffec99"></path><path d="M32 0 C103.67 1.14, 178.37 -1.21, 279.43 0 M32 0 C126.84 -1.41, 222.87 -0.38, 279.43 0 M279.43 0 C299.91 -1.07, 312.13 8.78, 311.43 32 M279.43 0 C298.63 1.55, 312.11 12.06, 311.43 32 M311.43 32 C310.53 49.66, 312.41 72.46, 311.43 100.86 M311.43 32 C312.42 55.89, 310.65 80.6, 311.43 100.86 M311.43 100.86 C312.18 122.02, 302.52 131.99, 279.43 132.86 M311.43 100.86 C312.54 122.75, 298.64 132.57, 279.43 132.86 M279.43 132.86 C221.02 131.06, 164.53 130.29, 32 132.86 M279.43 132.86 C200.31 131.65, 122.93 131.18, 32 132.86 M32 132.86 C11.25 131.63, 0.02 121.43, 0 100.86 M32 132.86 C11.85 130.58, 0.47 124.35, 0 100.86 M0 100.86 C-1.46 80.96, 0.45 61.08, 0 32 M0 100.86 C0.98 82.79, 0.46 64.53, 0 32 M0 32 C1.05 12.45, 10.75 0.71, 32 0 M0 32 C-0.9 11.08, 9.14 -2.28, 32 0" stroke="#1e1e1e" stroke-width="4" fill="none"></path></g></g><g clip-path="url(#uidL0hQlBpO7mGGDbfNc1)"><g transform="translate(828.1686741662397 1869.111086951361) rotate(0 79.00196075439453 17.5)"><text x="79.00196075439453" y="24.528" font-family="Virgil, Segoe UI Emoji" font-size="28px" fill="#1e1e1e" text-anchor="middle" style="white-space: pre;" direction="ltr" dominant-baseline="alphabetic">Brand Auth</text></g></g><g clip-path="url(#uidL0hQlBpO7mGGDbfNc1)"><g stroke-linecap="round"><g transform="translate(893.1706349206343 1817.111086951361) rotate(0 8.142293082451829 -32.881009722501005)"><path d="M-0.01 0.6 C-5.13 -6.09, -37.79 -29.74, -29.76 -40.9 C-21.73 -52.06, 35.08 -62.05, 48.19 -66.36 M-1.47 -0.14 C-6.82 -6.62, -38.75 -28.99, -30.58 -39.84 C-22.41 -50.69, 34.16 -60.87, 47.53 -65.23" stroke="#1e1e1e" stroke-width="4" fill="none"></path></g><g transform="translate(893.1706349206343 1817.111086951361) rotate(0 8.142293082451829 -32.881009722501005)"><path d="M26.85 -51.19 C35.86 -56.17, 41.29 -61.62, 47.53 -65.23 M26.85 -51.19 C31.71 -54.91, 38.12 -58.84, 47.53 -65.23" stroke="#1e1e1e" stroke-width="4" fill="none"></path></g><g transform="translate(893.1706349206343 1817.111086951361) rotate(0 8.142293082451829 -32.881009722501005)"><path d="M22.66 -67.77 C33.17 -66.39, 40.2 -65.5, 47.53 -65.23 M22.66 -67.77 C28.79 -66.99, 36.32 -66.44, 47.53 -65.23" stroke="#1e1e1e" stroke-width="4" fill="none"></path></g></g><mask></mask></g><g clip-path="url(#uidL0hQlBpO7mGGDbfNc1)"><g transform="translate(947.1306568932905 1737.111086951361) rotate(0 40.03997802734375 17.5)"><text x="40.03997802734375" y="24.528" font-family="Virgil, Segoe UI Emoji" font-size="28px" fill="#1e1e1e" text-anchor="middle" style="white-space: pre;" direction="ltr" dominant-baseline="alphabetic">Brand</text></g></g><g clip-path="url(#uidL0hQlBpO7mGGDbfNc1)"><g stroke-linecap="round"><g transform="translate(1101.1706349206343 1872.6760638393848) rotate(0 126.12099385769568 1.9862526374685103)"><path d="M0.85 0.34 C42.82 1.02, 210.65 2.63, 252.4 3.09 M-0.16 -0.52 C41.63 0.42, 209.92 3.69, 251.67 4.49" stroke="#1e1e1e" stroke-width="4" fill="none"></path></g><g transform="translate(1101.1706349206343 1872.6760638393848) rotate(0 126.12099385769568 1.9862526374685103)"><path d="M228.02 12.59 C236.94 10.26, 244.24 5.74, 251.67 4.49 M228.02 12.59 C234.97 9.42, 241.85 8.35, 251.67 4.49" stroke="#1e1e1e" stroke-width="4" fill="none"></path></g><g transform="translate(1101.1706349206343 1872.6760638393848) rotate(0 126.12099385769568 1.9862526374685103)"><path d="M228.35 -4.51 C237.02 -0.85, 244.2 0.63, 251.67 4.49 M228.35 -4.51 C235.16 -2.87, 241.94 0.85, 251.67 4.49" stroke="#1e1e1e" stroke-width="4" fill="none"></path></g></g><mask></mask></g><g clip-path="url(#uidL0hQlBpO7mGGDbfNc1)"><g stroke-linecap="round"><g transform="translate(1099.1706349206343 1865.0758444677303) rotate(0 125.39969283855987 -39.022831654868355)"><path d="M0.2 -0.5 C42.27 -13.45, 210.03 -64.86, 251.95 -77.55 M-1.15 -1.81 C40.88 -14.56, 209.42 -63.22, 251.5 -75.99" stroke="#1e1e1e" stroke-width="4" fill="none"></path></g><g transform="translate(1099.1706349206343 1865.0758444677303) rotate(0 125.39969283855987 -39.022831654868355)"><path d="M231.39 -61.14 C235.81 -63.49, 241.96 -67.81, 251.5 -75.99 M231.39 -61.14 C239.59 -66.96, 246.37 -71.71, 251.5 -75.99" stroke="#1e1e1e" stroke-width="4" fill="none"></path></g><g transform="translate(1099.1706349206343 1865.0758444677303) rotate(0 125.39969283855987 -39.022831654868355)"><path d="M226.54 -77.54 C232.25 -75.6, 239.68 -75.63, 251.5 -75.99 M226.54 -77.54 C236.7 -77.11, 245.32 -75.6, 251.5 -75.99" stroke="#1e1e1e" stroke-width="4" fill="none"></path></g></g><mask></mask></g><g clip-path="url(#vn_hXxv1MHp6SDdBO2KnH)"><g transform="translate(1440.9207875085249 1755.611086951361) rotate(0 288.7498474121094 17.5)"><text x="288.7498474121094" y="24.528" font-family="Virgil, Segoe UI Emoji" font-size="28px" fill="#1e1e1e" text-anchor="middle" style="white-space: pre;" direction="ltr" dominant-baseline="alphabetic">Register (post) =&gt; api/brandAuth/register</text></g></g><g clip-path="url(#vn_hXxv1MHp6SDdBO2KnH)"><g transform="translate(1472.9727589440718 1817.111086951361) rotate(0 240.1978759765625 17.5)"><text x="240.1978759765625" y="24.528" font-family="Virgil, Segoe UI Emoji" font-size="28px" fill="#1e1e1e" text-anchor="middle" style="white-space: pre;" direction="ltr" dominant-baseline="alphabetic">Login (post) =&gt; api/brandAuth/login</text></g></g><g clip-path="url(#uidL0hQlBpO7mGGDbfNc1)"><g stroke-linecap="round"><g transform="translate(1066.6706349206343 961.1110869513609) rotate(0 182.90181665495038 -46.39829544240143)"><path d="M-0.59 0.91 C60.62 -14.31, 305.49 -76.42, 366.39 -91.73 M1.3 0.35 C62.46 -15.22, 304.68 -78.2, 365.65 -93.71" stroke="#1e1e1e" stroke-width="4" fill="none"></path></g><g transform="translate(1066.6706349206343 961.1110869513609) rotate(0 182.90181665495038 -46.39829544240143)"><path d="M345.04 -79.57 C351.34 -82.06, 355 -87.89, 365.65 -93.71 M345.04 -79.57 C353.26 -84.89, 361.98 -90.93, 365.65 -93.71" stroke="#1e1e1e" stroke-width="4" fill="none"></path></g><g transform="translate(1066.6706349206343 961.1110869513609) rotate(0 182.90181665495038 -46.39829544240143)"><path d="M340.77 -96.13 C348 -94.79, 352.64 -96.83, 365.65 -93.71 M340.77 -96.13 C350.49 -95.02, 360.86 -94.64, 365.65 -93.71" stroke="#1e1e1e" stroke-width="4" fill="none"></path></g></g><mask></mask></g><g clip-path="url(#uidL0hQlBpO7mGGDbfNc1)"><g stroke-linecap="round"><g transform="translate(1062.6706349206345 965.1110869513609) rotate(0 184.99481666199392 -1.3949088889313828)"><path d="M-0.99 0.93 C60.3 0.73, 306.88 -1.29, 368.86 -1.73 M0.69 0.37 C62.24 -0.16, 309.32 -3.61, 370.98 -3.72" stroke="#1e1e1e" stroke-width="4" fill="none"></path></g><g transform="translate(1062.6706349206345 965.1110869513609) rotate(0 184.99481666199392 -1.3949088889313828)"><path d="M347.56 5.04 C358.36 -0.11, 366.48 -0.14, 370.98 -3.72 M347.56 5.04 C354.59 2.26, 362.51 -0.77, 370.98 -3.72" stroke="#1e1e1e" stroke-width="4" fill="none"></path></g><g transform="translate(1062.6706349206345 965.1110869513609) rotate(0 184.99481666199392 -1.3949088889313828)"><path d="M347.41 -12.06 C358.19 -10.48, 366.37 -3.78, 370.98 -3.72 M347.41 -12.06 C354.38 -9.32, 362.34 -6.81, 370.98 -3.72" stroke="#1e1e1e" stroke-width="4" fill="none"></path></g></g><mask></mask></g><g clip-path="url(#vn_hXxv1MHp6SDdBO2KnH)"><g stroke-linecap="round"><g transform="translate(2276.1706349206343 1775.3018968917954) rotate(0 59.165341213593955 -64.2442131936163)"><path d="M-1.08 0.92 C18.62 -20.77, 99.58 -107.71, 119.41 -129.41 M0.56 0.36 C20.07 -21.18, 99.52 -106.42, 118.89 -127.78" stroke="#1e1e1e" stroke-width="4" fill="none"></path></g><g transform="translate(2276.1706349206343 1775.3018968917954) rotate(0 59.165341213593955 -64.2442131936163)"><path d="M109.27 -104.71 C114.5 -112.47, 117.1 -124.23, 118.89 -127.78 M109.27 -104.71 C111.99 -112.8, 114.81 -120.51, 118.89 -127.78" stroke="#1e1e1e" stroke-width="4" fill="none"></path></g><g transform="translate(2276.1706349206343 1775.3018968917954) rotate(0 59.165341213593955 -64.2442131936163)"><path d="M96.69 -116.29 C107.03 -119.31, 114.66 -126.44, 118.89 -127.78 M96.69 -116.29 C103.55 -120.62, 110.44 -124.58, 118.89 -127.78" stroke="#1e1e1e" stroke-width="4" fill="none"></path></g></g><mask></mask></g><g transform="translate(1362.6706349206343 1683.4444190131285) rotate(0 60.759925842285156 8.75)"><text x="0" y="13.482" font-family="Assistant, Segoe UI Emoji" font-size="14px" fill="#999999" text-anchor="start" style="white-space: pre;" direction="ltr" dominant-baseline="alphabetic">Brand Signup &amp; login</text></g><rect transform="translate(1362.6706349206343 1703.9444190131285) rotate(0 456.25 113.75)" width="912.5px" height="227.5px" rx="8" ry="8" fill="none" stroke="#bbb" stroke-width="2"></rect><g clip-path="url(#uidL0hQlBpO7mGGDbfNc1)"><g stroke-linecap="round"><g transform="translate(1044.3373015873012 1398.111085679795) rotate(0 46.89435408189888 36.3484849905083)"><path d="M-0.77 0.59 C14.82 12.92, 78.64 60.86, 94.56 72.84 M1.02 -0.14 C16.33 11.91, 77.92 58.58, 93.38 70.9" stroke="#1e1e1e" stroke-width="4" fill="none"></path></g><g transform="translate(1044.3373015873012 1398.111085679795) rotate(0 46.89435408189888 36.3484849905083)"><path d="M69.58 63.27 C79.62 65.62, 88.33 68.83, 93.38 70.9 M69.58 63.27 C76.71 65.71, 83.19 68.33, 93.38 70.9" stroke="#1e1e1e" stroke-width="4" fill="none"></path></g><g transform="translate(1044.3373015873012 1398.111085679795) rotate(0 46.89435408189888 36.3484849905083)"><path d="M80.05 49.75 C85.95 57.22, 90.64 65.61, 93.38 70.9 M80.05 49.75 C84.02 56.09, 87.4 62.7, 93.38 70.9" stroke="#1e1e1e" stroke-width="4" fill="none"></path></g></g><mask></mask></g><g clip-path="url(#uidL0hQlBpO7mGGDbfNc1)"><g transform="translate(1153.9275115482387 1448.111085679795) rotate(0 410.4097900390625 17.5)"><text x="410.4097900390625" y="24.528" font-family="Virgil, Segoe UI Emoji" font-size="28px" fill="#1e1e1e" text-anchor="middle" style="white-space: pre;" direction="ltr" dominant-baseline="alphabetic">getProductRate (get) api/products/productrate/:productId</text></g></g><g clip-path="url(#uidL0hQlBpO7mGGDbfNc1)"><g stroke-linecap="round"><g transform="translate(2114.337301587301 884.9277587571283) rotate(0 93.84458054365123 10.262243781184068)"><path d="M-0.23 0.27 C31.21 3.79, 157.87 17.78, 189.49 21.16 M-1.8 -0.64 C29.36 2.55, 156.56 16.34, 188.28 19.52" stroke="#1e1e1e" stroke-width="4" fill="none"></path></g><g transform="translate(2114.337301587301 884.9277587571283) rotate(0 93.84458054365123 10.262243781184068)"><path d="M164.02 25.58 C173.5 22.52, 183.62 20.34, 188.28 19.52 M164.02 25.58 C172.55 22.72, 179.16 21.76, 188.28 19.52" stroke="#1e1e1e" stroke-width="4" fill="none"></path></g><g transform="translate(2114.337301587301 884.9277587571283) rotate(0 93.84458054365123 10.262243781184068)"><path d="M165.8 8.57 C174.62 11.85, 184.08 16, 188.28 19.52 M165.8 8.57 C173.64 11.31, 179.67 15.95, 188.28 19.52" stroke="#1e1e1e" stroke-width="4" fill="none"></path></g></g><mask></mask></g><g clip-path="url(#uidL0hQlBpO7mGGDbfNc1)"><g stroke-linecap="round"><g transform="translate(2794.7539682539673 1665.5898505870048) rotate(0 82.82042788739008 -52.14019635401388)"><path d="M-1.05 -0.88 C26.82 -18.07, 138.95 -86.47, 166.69 -103.54 M0.61 1.28 C28.43 -16.27, 138.89 -87.78, 166.19 -105.56" stroke="#1e1e1e" stroke-width="4" fill="none"></path></g><g transform="translate(2794.7539682539673 1665.5898505870048) rotate(0 82.82042788739008 -52.14019635401388)"><path d="M151.13 -85.6 C153.64 -89.24, 159.34 -96.62, 166.19 -105.56 M151.13 -85.6 C156.58 -92.36, 160.7 -98.61, 166.19 -105.56" stroke="#1e1e1e" stroke-width="4" fill="none"></path></g><g transform="translate(2794.7539682539673 1665.5898505870048) rotate(0 82.82042788739008 -52.14019635401388)"><path d="M141.82 -99.95 C146.71 -99.77, 154.82 -103.43, 166.19 -105.56 M141.82 -99.95 C150.32 -101.8, 157.56 -103.24, 166.19 -105.56" stroke="#1e1e1e" stroke-width="4" fill="none"></path></g></g><mask></mask></g><g clip-path="url(#uidL0hQlBpO7mGGDbfNc1)"><g stroke-linecap="round"><g transform="translate(2794.337301587301 1666.2986359323077) rotate(0 72.4550439660888 -17.75648805599093)"><path d="M0.89 -1.13 C25.04 -7.06, 121.16 -30.42, 145.02 -36.4 M-0.11 0.89 C23.95 -4.76, 120.64 -28.66, 144.52 -34.8" stroke="#1e1e1e" stroke-width="4" fill="none"></path></g><g transform="translate(2794.337301587301 1666.2986359323077) rotate(0 72.4550439660888 -17.75648805599093)"><path d="M123.82 -20.78 C128.4 -23.83, 136.86 -29.82, 144.52 -34.8 M123.82 -20.78 C128.67 -25.2, 133.63 -27.83, 144.52 -34.8" stroke="#1e1e1e" stroke-width="4" fill="none"></path></g><g transform="translate(2794.337301587301 1666.2986359323077) rotate(0 72.4550439660888 -17.75648805599093)"><path d="M119.65 -37.37 C125.4 -35.34, 135.15 -36.22, 144.52 -34.8 M119.65 -37.37 C125.74 -37.46, 131.78 -35.79, 144.52 -34.8" stroke="#1e1e1e" stroke-width="4" fill="none"></path></g></g><mask></mask></g><g clip-path="url(#uidL0hQlBpO7mGGDbfNc1)"><g stroke-linecap="round"><g transform="translate(2794.087301587301 1676.0855248900639) rotate(0 75.35311589900721 18.59367470217029)"><path d="M0.13 -0.37 C25.06 5.87, 124.66 30.93, 149.74 37.47 M-1.26 -1.61 C24.03 4.8, 126.78 32.37, 151.97 38.8" stroke="#1e1e1e" stroke-width="4" fill="none"></path></g><g transform="translate(2794.087301587301 1676.0855248900639) rotate(0 75.35311589900721 18.59367470217029)"><path d="M127.07 41.1 C134.26 38.81, 142.03 39.58, 151.97 38.8 M127.07 41.1 C136.42 40.95, 145.73 38.38, 151.97 38.8" stroke="#1e1e1e" stroke-width="4" fill="none"></path></g><g transform="translate(2794.087301587301 1676.0855248900639) rotate(0 75.35311589900721 18.59367470217029)"><path d="M131.42 24.56 C137.25 27.46, 143.65 33.41, 151.97 38.8 M131.42 24.56 C139.21 30.7, 146.87 34.41, 151.97 38.8" stroke="#1e1e1e" stroke-width="4" fill="none"></path></g></g><mask></mask></g><g clip-path="url(#uidL0hQlBpO7mGGDbfNc1)"><g transform="translate(2988.378795321025 1533.9444190131285) rotate(0 325.54183959960943 17.5)"><text x="325.5418395996094" y="24.528" font-family="Virgil, Segoe UI Emoji" font-size="28px" fill="#1e1e1e" text-anchor="middle" style="white-space: pre;" direction="ltr" dominant-baseline="alphabetic">addProduct (post) =&gt; api/products/addproduct</text></g></g><g clip-path="url(#uidL0hQlBpO7mGGDbfNc1)"><g transform="translate(2957.6154998294887 1605.611085679795) rotate(0 447.97180175781256 17.5)"><text x="447.9718017578125" y="24.528" font-family="Virgil, Segoe UI Emoji" font-size="28px" fill="#1e1e1e" text-anchor="middle" style="white-space: pre;" direction="ltr" dominant-baseline="alphabetic">updateProduct (post) =&gt; api/products/updateproduct/:productId</text></g></g><g clip-path="url(#uidL0hQlBpO7mGGDbfNc1)"><g transform="translate(2965.401510571676 1698.111085679795) rotate(0 445.18579101562506 17.5)"><text x="445.185791015625" y="24.528" font-family="Virgil, Segoe UI Emoji" font-size="28px" fill="#1e1e1e" text-anchor="middle" style="white-space: pre;" direction="ltr" dominant-baseline="alphabetic">deleteProduct (post) =&gt; api/products/deleteproducts/:productId</text></g></g><g clip-path="url(#uidL0hQlBpO7mGGDbfNc1)"><g stroke-linecap="round" transform="translate(2415.587301587301 1559.361085679795) rotate(0 188.75 101.25)"><path d="M32 0 C98.55 0.9, 170.74 -3.14, 345.5 0 C364.73 2.65, 376.29 11.24, 377.5 32 C372.69 73.37, 375.96 111.62, 377.5 170.5 C377.04 190.43, 363.42 206.01, 345.5 202.5 C272.28 199.31, 197.51 200.37, 32 202.5 C8.31 201.92, 1.78 190.26, 0 170.5 C1.08 121.2, 0.19 79.14, 0 32 C2.47 11.45, 10.24 1.71, 32 0" stroke="none" stroke-width="0" fill="#ffec99"></path><path d="M32 0 C130.83 -2.12, 226.92 -2.4, 345.5 0 M32 0 C126.09 0.98, 220.49 0.8, 345.5 0 M345.5 0 C367.02 -0.92, 378.52 11.73, 377.5 32 M345.5 0 C367.31 2.28, 376.76 9.46, 377.5 32 M377.5 32 C377.72 82.73, 375.44 131.16, 377.5 170.5 M377.5 32 C376.85 80.42, 375.95 130.22, 377.5 170.5 M377.5 170.5 C376.49 190.05, 368.15 204.49, 345.5 202.5 M377.5 170.5 C378.08 192.62, 365.91 203.43, 345.5 202.5 M345.5 202.5 C231.14 202.76, 113.06 202.45, 32 202.5 M345.5 202.5 C269.05 202.67, 193.85 202.54, 32 202.5 M32 202.5 C10.02 201.09, -1.85 192.52, 0 170.5 M32 202.5 C11.24 203.63, -1.93 193.87, 0 170.5 M0 170.5 C1.3 129.61, 1.73 90.59, 0 32 M0 170.5 C0.86 114.91, -0.11 60.91, 0 32 M0 32 C1.46 10.11, 10 -0.67, 32 0 M0 32 C-0.33 8.51, 10 0.29, 32 0" stroke="#1e1e1e" stroke-width="4" fill="none"></path></g></g><g clip-path="url(#uidL0hQlBpO7mGGDbfNc1)"><g transform="translate(2456.209341382223 1635.611085679795) rotate(0 133.12796020507812 22.5)"><text x="133.12796020507812" y="31.536" font-family="Virgil, Segoe UI Emoji" font-size="36px" fill="#1e1e1e" text-anchor="middle" style="white-space: pre;" direction="ltr" dominant-baseline="alphabetic">Cont. Products</text></g></g><g clip-path="url(#uidL0hQlBpO7mGGDbfNc1)"><g stroke-linecap="round" transform="translate(2306.837301587301 796.4444190131284) rotate(0 188.75 101.25)"><path d="M32 0 C119.24 4.26, 204.22 4.89, 345.5 0 C364.27 -0.6, 374.35 9.4, 377.5 32 C374.66 80.9, 375.37 125.54, 377.5 170.5 C377.51 195.15, 363.43 203.54, 345.5 202.5 C272.04 200.4, 205.49 199.08, 32 202.5 C7.87 199.09, -1.53 192.81, 0 170.5 C-1.43 134.74, 4.35 99.14, 0 32 C-1.71 12.26, 13.27 1.57, 32 0" stroke="none" stroke-width="0" fill="#ffec99"></path><path d="M32 0 C104.14 2.17, 177.71 2.26, 345.5 0 M32 0 C148.82 -0.27, 266.14 -0.08, 345.5 0 M345.5 0 C365.09 1.33, 379.45 11.12, 377.5 32 M345.5 0 C364.6 -0.2, 379.59 9.89, 377.5 32 M377.5 32 C378.61 65.25, 377.28 103.16, 377.5 170.5 M377.5 32 C376.9 77.44, 375.97 123.24, 377.5 170.5 M377.5 170.5 C376.76 193.63, 368.25 201.36, 345.5 202.5 M377.5 170.5 C378.07 193.87, 366.58 200.57, 345.5 202.5 M345.5 202.5 C248.22 205.6, 150.76 205.25, 32 202.5 M345.5 202.5 C222.31 204.24, 99.79 203.57, 32 202.5 M32 202.5 C10.45 204.21, -0.73 191.63, 0 170.5 M32 202.5 C11.11 200.73, 0.92 193.04, 0 170.5 M0 170.5 C-2.44 135.02, -3.13 99.84, 0 32 M0 170.5 C1.43 137.38, 2.13 104.52, 0 32 M0 32 C1.01 10.29, 11.94 1.68, 32 0 M0 32 C-2.12 10.76, 8.5 1.5, 32 0" stroke="#1e1e1e" stroke-width="4" fill="none"></path></g></g><g clip-path="url(#uidL0hQlBpO7mGGDbfNc1)"><g transform="translate(2356.209341382223 878.9444190131284) rotate(0 133.12796020507812 22.5)"><text x="133.12796020507812" y="31.536" font-family="Virgil, Segoe UI Emoji" font-size="36px" fill="#1e1e1e" text-anchor="middle" style="white-space: pre;" direction="ltr" dominant-baseline="alphabetic">Cont. Products</text></g></g><g clip-path="url(#uidL0hQlBpO7mGGDbfNc1)"><g stroke-linecap="round"><g transform="translate(2689.337301587301 893.9444190131284) rotate(0 85.92793193401302 -9.62734485679772)"><path d="M0.75 -0.4 C29.58 -3.28, 143.41 -14.04, 172.17 -16.99 M-0.31 -1.66 C28.39 -4.92, 142.17 -16.26, 171.05 -18.85" stroke="#1e1e1e" stroke-width="4" fill="none"></path></g><g transform="translate(2689.337301587301 893.9444190131284) rotate(0 85.92793193401302 -9.62734485679772)"><path d="M148.48 -8.1 C153.08 -11.32, 159.9 -11.97, 171.05 -18.85 M148.48 -8.1 C154.28 -10.71, 159.57 -13.98, 171.05 -18.85" stroke="#1e1e1e" stroke-width="4" fill="none"></path></g><g transform="translate(2689.337301587301 893.9444190131284) rotate(0 85.92793193401302 -9.62734485679772)"><path d="M146.85 -25.13 C151.87 -24.36, 159.07 -21.01, 171.05 -18.85 M146.85 -25.13 C153.02 -23.56, 158.7 -22.65, 171.05 -18.85" stroke="#1e1e1e" stroke-width="4" fill="none"></path></g></g><mask></mask></g><g clip-path="url(#uidL0hQlBpO7mGGDbfNc1)"><g transform="translate(2874.2514861576137 854.7777523464616) rotate(0 512.5858154296875 22.5)"><text x="512.5858154296875" y="31.536" font-family="Virgil, Segoe UI Emoji" font-size="36px" fill="#1e1e1e" text-anchor="middle" style="white-space: pre;" direction="ltr" dominant-baseline="alphabetic">addProductLike (post) =&gt; api/products/addlike/:productId</text></g></g><g clip-path="url(#uidL0hQlBpO7mGGDbfNc1)"><g stroke-linecap="round"><g transform="translate(2686.837301587301 897.5530577384109) rotate(0 92.24263755803297 35.80180488110324)"><path d="M-1.07 0.48 C29.76 12.43, 154.55 58.94, 185.56 70.72 M0.56 -0.32 C31.22 11.88, 154.26 59.81, 184.85 71.92" stroke="#1e1e1e" stroke-width="4" fill="none"></path></g><g transform="translate(2686.837301587301 897.5530577384109) rotate(0 92.24263755803297 35.80180488110324)"><path d="M159.86 71.3 C169.33 72.49, 176.17 71.71, 184.85 71.92 M159.86 71.3 C167.02 72.11, 174.2 71.13, 184.85 71.92" stroke="#1e1e1e" stroke-width="4" fill="none"></path></g><g transform="translate(2686.837301587301 897.5530577384109) rotate(0 92.24263755803297 35.80180488110324)"><path d="M166.1 55.38 C173.27 62.05, 177.94 66.8, 184.85 71.92 M166.1 55.38 C171.41 60.75, 176.81 64.3, 184.85 71.92" stroke="#1e1e1e" stroke-width="4" fill="none"></path></g></g><mask></mask></g><g clip-path="url(#uidL0hQlBpO7mGGDbfNc1)"><g transform="translate(2887.7521982344365 952.2777523464617) rotate(0 558.2517700195312 22.5)"><text x="558.2517700195312" y="31.536" font-family="Virgil, Segoe UI Emoji" font-size="36px" fill="#1e1e1e" text-anchor="middle" style="white-space: pre;" direction="ltr" dominant-baseline="alphabetic">addProductDislike (post) =&gt; api/products/adddislike/:productId</text></g></g><g clip-path="url(#uidL0hQlBpO7mGGDbfNc1)"><g stroke-linecap="round"><g transform="translate(2289.7539682539677 1729.4933689840875) rotate(0 56.5913237594208 -48.27028596159886)"><path d="M-0.34 1.18 C18.09 -15.15, 92.69 -81.19, 111.39 -97.72 M1.68 0.75 C20.4 -15.45, 95.34 -80.23, 113.53 -96.55" stroke="#1e1e1e" stroke-width="4" fill="none"></path></g><g transform="translate(2289.7539682539677 1729.4933689840875) rotate(0 56.5913237594208 -48.27028596159886)"><path d="M101.52 -74.63 C107.83 -84.46, 109.08 -91.63, 113.53 -96.55 M101.52 -74.63 C103.47 -79.89, 107.03 -84.56, 113.53 -96.55" stroke="#1e1e1e" stroke-width="4" fill="none"></path></g><g transform="translate(2289.7539682539677 1729.4933689840875) rotate(0 56.5913237594208 -48.27028596159886)"><path d="M90.23 -87.48 C100.7 -92.57, 106.08 -95.05, 113.53 -96.55 M90.23 -87.48 C94.74 -90.01, 100.77 -91.86, 113.53 -96.55" stroke="#1e1e1e" stroke-width="4" fill="none"></path></g></g><mask></mask></g><g clip-path="url(#uidL0hQlBpO7mGGDbfNc1)"><g stroke-linecap="round"><g transform="translate(2102.1263239297678 1012.4087075884372) rotate(0 50.12380154500846 80.76015471308062)"><path d="M-1.15 -0.96 C2.97 22.5, 7.09 114.5, 23.77 141.74 C40.45 168.98, 86.12 159.23, 98.94 162.48 M0.45 1.16 C4.56 25.24, 6.45 116.18, 23.28 142.74 C40.1 169.3, 88.38 157.32, 101.4 160.53" stroke="#1e1e1e" stroke-width="4" fill="none"></path></g><g transform="translate(2102.1263239297678 1012.4087075884372) rotate(0 50.12380154500846 80.76015471308062)"><path d="M77.8 168.79 C81.42 168.63, 86.58 163.93, 101.4 160.53 M77.8 168.79 C87.02 165.98, 94.07 163.76, 101.4 160.53" stroke="#1e1e1e" stroke-width="4" fill="none"></path></g><g transform="translate(2102.1263239297678 1012.4087075884372) rotate(0 50.12380154500846 80.76015471308062)"><path d="M78.01 151.69 C81.73 155.36, 86.84 154.49, 101.4 160.53 M78.01 151.69 C87.28 155.08, 94.26 159.07, 101.4 160.53" stroke="#1e1e1e" stroke-width="4" fill="none"></path></g></g><mask></mask></g><g clip-path="url(#uidL0hQlBpO7mGGDbfNc1)"><g stroke-linecap="round" transform="translate(2226.896825396825 1139.7539682539673) rotate(0 180 92.5)"><path d="M32 0 C129.27 -1.37, 232.62 -3, 328 0 C350.07 -0.83, 361.75 11.8, 360 32 C362.23 72.8, 362.05 113.87, 360 153 C356.77 176.36, 350.81 185.61, 328 185 C237.27 183.02, 147.1 185.63, 32 185 C9.89 184.68, 3.6 175.63, 0 153 C4.12 120.74, 1.35 88.67, 0 32 C-0.15 13.7, 11.78 -3.17, 32 0" stroke="none" stroke-width="0" fill="#ffc9c9"></path><path d="M32 0 C117.68 -1.08, 202.4 -0.65, 328 0 M32 0 C99.57 -2.22, 166.66 -1.01, 328 0 M328 0 C349.58 0.08, 361.73 9.96, 360 32 M328 0 C347.96 -0.77, 359.66 8.97, 360 32 M360 32 C358.87 65.07, 359.73 98.9, 360 153 M360 32 C360.66 65.01, 360.11 96.76, 360 153 M360 153 C361.42 173.69, 349.08 183.62, 328 185 M360 153 C360.03 172.38, 349.2 186.44, 328 185 M328 185 C256.43 185.14, 186.28 185.01, 32 185 M328 185 C213.64 184.45, 100.72 184.2, 32 185 M32 185 C10.68 186.43, 1.85 174.32, 0 153 M32 185 C9.83 183.34, 1.97 174.52, 0 153 M0 153 C1.08 119.35, -2.36 86.23, 0 32 M0 153 C0.19 114.07, 1.59 73.43, 0 32 M0 32 C-1.35 11.4, 12.24 1.33, 32 0 M0 32 C-0.96 12.3, 9.53 -0.21, 32 0" stroke="#1e1e1e" stroke-width="4" fill="none"></path></g></g><g clip-path="url(#uidL0hQlBpO7mGGDbfNc1)"><g stroke-linecap="round"><g transform="translate(2347.0550419722404 1135.1825396825388) rotate(0 60.59226017086824 -50.54629430931219)"><path d="M-0.68 1.15 C0.28 -9.92, 2.04 -49.14, 6.73 -65.81 C11.43 -82.48, 8.31 -92.9, 27.49 -98.85 C46.68 -104.8, 106.06 -101, 121.83 -101.52 M1.17 0.7 C1.89 -10.22, 1.54 -47.93, 5.89 -64.32 C10.23 -80.72, 7.9 -91.65, 27.23 -97.68 C46.56 -103.7, 106.3 -99.76, 121.86 -100.46" stroke="#1e1e1e" stroke-width="4" fill="none"></path></g><g transform="translate(2347.0550419722404 1135.1825396825388) rotate(0 60.59226017086824 -50.54629430931219)"><path d="M98.29 -92.14 C109.24 -94.88, 116.25 -96.82, 121.86 -100.46 M98.29 -92.14 C104.75 -94.9, 111.28 -96.58, 121.86 -100.46" stroke="#1e1e1e" stroke-width="4" fill="none"></path></g><g transform="translate(2347.0550419722404 1135.1825396825388) rotate(0 60.59226017086824 -50.54629430931219)"><path d="M98.45 -109.24 C109.43 -105.39, 116.37 -100.74, 121.86 -100.46 M98.45 -109.24 C104.81 -107.26, 111.29 -104.21, 121.86 -100.46" stroke="#1e1e1e" stroke-width="4" fill="none"></path></g></g><mask></mask></g><g clip-path="url(#uidL0hQlBpO7mGGDbfNc1)"><g transform="translate(2484.2496158660397 1022.325396825396) rotate(0 45.051971435546875 17.5)"><text x="45.051971435546875" y="24.528" font-family="Virgil, Segoe UI Emoji" font-size="28px" fill="#1e1e1e" text-anchor="middle" style="white-space: pre;" direction="ltr" dominant-baseline="alphabetic">Offers</text></g></g><g clip-path="url(#uidL0hQlBpO7mGGDbfNc1)"><g transform="translate(2334.234764704628 1205.8968253968244) rotate(0 57.92396545410156 22.5)"><text x="57.92396545410156" y="31.536" font-family="Virgil, Segoe UI Emoji" font-size="36px" fill="#1e1e1e" text-anchor="middle" style="white-space: pre;" direction="ltr" dominant-baseline="alphabetic">Offers</text></g></g><g clip-path="url(#uidL0hQlBpO7mGGDbfNc1)"><g stroke-linecap="round"><g transform="translate(2587.896825396825 1249.4315134099606) rotate(0 80.79724948417548 -41.816818884691045)"><path d="M0.05 0.08 C27.34 -13.45, 135.8 -68.1, 162.98 -82.02 M-1.39 -0.92 C25.82 -14.71, 134.79 -70.13, 162.11 -83.72" stroke="#1e1e1e" stroke-width="4" fill="none"></path></g><g transform="translate(2587.896825396825 1249.4315134099606) rotate(0 80.79724948417548 -41.816818884691045)"><path d="M144.98 -65.51 C149.3 -69.58, 154.55 -73.63, 162.11 -83.72 M144.98 -65.51 C148.75 -70.01, 152.63 -75.4, 162.11 -83.72" stroke="#1e1e1e" stroke-width="4" fill="none"></path></g><g transform="translate(2587.896825396825 1249.4315134099606) rotate(0 80.79724948417548 -41.816818884691045)"><path d="M137.29 -80.79 C143.32 -81.24, 150.4 -81.67, 162.11 -83.72 M137.29 -80.79 C142.95 -81.46, 148.74 -83.04, 162.11 -83.72" stroke="#1e1e1e" stroke-width="4" fill="none"></path></g></g><mask></mask></g><g clip-path="url(#uidL0hQlBpO7mGGDbfNc1)"><g transform="translate(2767.0405748155376 1135.1825396825386) rotate(0 289.40386962890625 22.5)"><text x="289.40386962890625" y="31.536" font-family="Virgil, Segoe UI Emoji" font-size="36px" fill="#1e1e1e" text-anchor="middle" style="white-space: pre;" direction="ltr" dominant-baseline="alphabetic">getAllOffers (get) =&gt; api/Offers</text></g></g><g clip-path="url(#uidL0hQlBpO7mGGDbfNc1)"><g stroke-linecap="round"><g transform="translate(2592.1587301587297 1249.468253968253) rotate(0 82.36415142746915 -6.017873211311397)"><path d="M-0.43 0.55 C27.08 -1.45, 137.88 -10.77, 165.16 -12.59 M1.54 -0.21 C28.96 -2.06, 137.32 -9.67, 164.67 -11.66" stroke="#1e1e1e" stroke-width="4" fill="none"></path></g><g transform="translate(2592.1587301587297 1249.468253968253) rotate(0 82.36415142746915 -6.017873211311397)"><path d="M141.84 -1.46 C149.84 -3.06, 154.03 -9.36, 164.67 -11.66 M141.84 -1.46 C150.99 -6.45, 160.03 -8.76, 164.67 -11.66" stroke="#1e1e1e" stroke-width="4" fill="none"></path></g><g transform="translate(2592.1587301587297 1249.468253968253) rotate(0 82.36415142746915 -6.017873211311397)"><path d="M140.63 -18.52 C148.92 -14.86, 153.48 -15.9, 164.67 -11.66 M140.63 -18.52 C150.19 -16.86, 159.7 -12.52, 164.67 -11.66" stroke="#1e1e1e" stroke-width="4" fill="none"></path></g></g><mask></mask></g><g clip-path="url(#uidL0hQlBpO7mGGDbfNc1)"><g transform="translate(2774.378352089533 1210.8968253968246) rotate(0 476.35180664062494 22.5)"><text x="476.351806640625" y="31.536" font-family="Virgil, Segoe UI Emoji" font-size="36px" fill="#1e1e1e" text-anchor="middle" style="white-space: pre;" direction="ltr" dominant-baseline="alphabetic">getOneOffer (get) =&gt; api/offers/getoneoffer/:offerId</text></g></g><g clip-path="url(#uidL0hQlBpO7mGGDbfNc1)"><g stroke-linecap="round"><g transform="translate(2285.492063492063 1821.373015873015) rotate(0 61.854219376614076 26.010343889603405)"><path d="M0.78 0.95 C21.28 9.32, 103.7 41.77, 123.98 50.06 M-0.27 0.4 C20.04 8.99, 102.51 43.58, 123.37 51.62" stroke="#1e1e1e" stroke-width="4" fill="none"></path></g><g transform="translate(2285.492063492063 1821.373015873015) rotate(0 61.854219376614076 26.010343889603405)"><path d="M98.39 50.73 C109.46 51.99, 117.48 49.81, 123.37 51.62 M98.39 50.73 C107.87 51.37, 117.08 51.33, 123.37 51.62" stroke="#1e1e1e" stroke-width="4" fill="none"></path></g><g transform="translate(2285.492063492063 1821.373015873015) rotate(0 61.854219376614076 26.010343889603405)"><path d="M104.81 34.88 C113.42 42.2, 118.99 46.05, 123.37 51.62 M104.81 34.88 C111.87 41.2, 118.79 46.81, 123.37 51.62" stroke="#1e1e1e" stroke-width="4" fill="none"></path></g></g><mask></mask></g><g clip-path="url(#uidL0hQlBpO7mGGDbfNc1)"><g stroke-linecap="round" transform="translate(2428.8253968253966 1841.373015873015) rotate(0 175 83.33333333333326)"><path d="M32 0 C130.03 -0.32, 221.11 -2.9, 318 0 C339.59 -0.46, 347.59 10.76, 350 32 C346.2 68.91, 347.74 111.27, 350 134.67 C349.09 156.25, 339.29 169.25, 318 166.67 C243.66 170.72, 163.96 171.69, 32 166.67 C13.7 167.93, 3.54 152.99, 0 134.67 C-0.39 96.84, 1.24 62.63, 0 32 C2.45 12.6, 9.33 -2.84, 32 0" stroke="none" stroke-width="0" fill="#ffc9c9"></path><path d="M32 0 C146.39 -0.7, 257.47 -0.74, 318 0 M32 0 C137.59 2.06, 244.57 1.59, 318 0 M318 0 C339.44 -0.64, 350.57 10.86, 350 32 M318 0 C339.93 -0.87, 350.46 12.48, 350 32 M350 32 C350.92 67.14, 348.33 97.81, 350 134.67 M350 32 C349.63 68.73, 349.2 105.56, 350 134.67 M350 134.67 C348.8 155.03, 339.69 168.01, 318 166.67 M350 134.67 C349.99 155.47, 339.25 167.62, 318 166.67 M318 166.67 C213.3 168.9, 109.42 168.28, 32 166.67 M318 166.67 C256.81 167.9, 194.72 167.74, 32 166.67 M32 166.67 C11.31 166.08, 1.2 154.64, 0 134.67 M32 166.67 C12.79 168.15, 1.11 156.43, 0 134.67 M0 134.67 C1.8 109.34, 0.58 82.66, 0 32 M0 134.67 C0.39 111.18, 0 86.49, 0 32 M0 32 C-1.15 10.82, 11.27 -0.14, 32 0 M0 32 C-2.27 11.01, 10.68 -0.14, 32 0" stroke="#1e1e1e" stroke-width="4" fill="none"></path></g></g><g clip-path="url(#uidL0hQlBpO7mGGDbfNc1)"><g transform="translate(2493.4961070711647 1911.3730158730148) rotate(0 111.99595642089844 22.5)"><text x="111.99595642089844" y="31.536" font-family="Virgil, Segoe UI Emoji" font-size="36px" fill="#1e1e1e" text-anchor="middle" style="white-space: pre;" direction="ltr" dominant-baseline="alphabetic">Cont. Offers</text></g></g><g clip-path="url(#uidL0hQlBpO7mGGDbfNc1)"><g stroke-linecap="round"><g transform="translate(2788.8253968253966 1884.7063492063482) rotate(0 66.9315142576038 -0.42021867129574275)"><path d="M1 -0.08 C23.31 -0.02, 111.89 0.61, 133.8 0.61 M0.06 -1.17 C22.26 -1.48, 110.63 -1.59, 133.1 -1.19" stroke="#1e1e1e" stroke-width="4" fill="none"></path></g><g transform="translate(2788.8253968253966 1884.7063492063482) rotate(0 66.9315142576038 -0.42021867129574275)"><path d="M109.55 7.2 C116.31 5.32, 124.39 0.62, 133.1 -1.19 M109.55 7.2 C116.36 3.7, 123.52 2.82, 133.1 -1.19" stroke="#1e1e1e" stroke-width="4" fill="none"></path></g><g transform="translate(2788.8253968253966 1884.7063492063482) rotate(0 66.9315142576038 -0.42021867129574275)"><path d="M109.67 -9.9 C116.43 -6.75, 124.47 -6.43, 133.1 -1.19 M109.67 -9.9 C116.46 -8.36, 123.59 -4.2, 133.1 -1.19" stroke="#1e1e1e" stroke-width="4" fill="none"></path></g></g><mask></mask></g><g clip-path="url(#uidL0hQlBpO7mGGDbfNc1)"><g transform="translate(2963.8115113273498 1858.0396825396817) rotate(0 355.0138854980469 22.5)"><text x="355.0138854980469" y="31.536" font-family="Virgil, Segoe UI Emoji" font-size="36px" fill="#1e1e1e" text-anchor="middle" style="white-space: pre;" direction="ltr" dominant-baseline="alphabetic">addOffer (post) =&gt; api/offers/addoffer</text></g></g><g clip-path="url(#uidL0hQlBpO7mGGDbfNc1)"><g stroke-linecap="round"><g transform="translate(2785.4920634920636 1894.7063492063482) rotate(0 73.1372181740897 47.1034282704411)"><path d="M-0.34 1.15 C24.03 16.36, 122.03 77.25, 146.61 92.43 M1.69 0.71 C25.86 16.55, 121.47 78.11, 145.63 93.5" stroke="#1e1e1e" stroke-width="4" fill="none"></path></g><g transform="translate(2785.4920634920636 1894.7063492063482) rotate(0 73.1372181740897 47.1034282704411)"><path d="M121.24 88.02 C131.3 89.81, 135.97 92.57, 145.63 93.5 M121.24 88.02 C126.37 89.4, 132.58 90.2, 145.63 93.5" stroke="#1e1e1e" stroke-width="4" fill="none"></path></g><g transform="translate(2785.4920634920636 1894.7063492063482) rotate(0 73.1372181740897 47.1034282704411)"><path d="M130.47 73.62 C137.61 80.16, 139.22 87.7, 145.63 93.5 M130.47 73.62 C133.72 78.08, 137.98 81.93, 145.63 93.5" stroke="#1e1e1e" stroke-width="4" fill="none"></path></g></g><mask></mask></g><g clip-path="url(#uidL0hQlBpO7mGGDbfNc1)"><g transform="translate(2981.1662578280007 1958.0396825396815) rotate(0 484.3258056640625 22.5)"><text x="484.3258056640625" y="31.536" font-family="Virgil, Segoe UI Emoji" font-size="36px" fill="#1e1e1e" text-anchor="middle" style="white-space: pre;" direction="ltr" dominant-baseline="alphabetic">UpdateOffer (put) =&gt; api/offers/updateoffer/:offerId</text></g></g><g clip-path="url(#uidL0hQlBpO7mGGDbfNc1)"><g stroke-linecap="round"><g transform="translate(2788.8253968253966 1904.7063492063482) rotate(0 52.11050254578376 77.18929919720779)"><path d="M-0.3 0.93 C17.17 26.67, 87.09 128.52, 104.52 154.01 M1.75 0.37 C19.19 25.8, 87.15 127, 104.19 152.24" stroke="#1e1e1e" stroke-width="4" fill="none"></path></g><g transform="translate(2788.8253968253966 1904.7063492063482) rotate(0 52.11050254578376 77.18929919720779)"><path d="M83.98 137.53 C91.02 143.59, 96.14 147.24, 104.19 152.24 M83.98 137.53 C91.53 141.76, 97.09 147.7, 104.19 152.24" stroke="#1e1e1e" stroke-width="4" fill="none"></path></g><g transform="translate(2788.8253968253966 1904.7063492063482) rotate(0 52.11050254578376 77.18929919720779)"><path d="M98.16 127.98 C101.28 136.62, 102.51 142.89, 104.19 152.24 M98.16 127.98 C100.84 135.61, 101.5 144.86, 104.19 152.24" stroke="#1e1e1e" stroke-width="4" fill="none"></path></g></g><mask></mask></g><g clip-path="url(#uidL0hQlBpO7mGGDbfNc1)"><g transform="translate(2944.830289810422 2044.7063492063482) rotate(0 490.6617736816406 22.5)"><text x="490.6617736816406" y="31.536" font-family="Virgil, Segoe UI Emoji" font-size="36px" fill="#1e1e1e" text-anchor="middle" style="white-space: pre;" direction="ltr" dominant-baseline="alphabetic">deleteoffer (delete) =&gt; api/offers/deleteoffer/:offerId</text></g></g><g clip-path="url(#uidL0hQlBpO7mGGDbfNc1)"><g stroke-linecap="round"><g transform="translate(2552.1587301587297 1551.373015873015) rotate(0 1.8467078875795906 -45.61344258948688)"><path d="M-0.35 0.58 C-10.13 -11.22, -70.67 -55.71, -59.71 -70.75 C-48.76 -85.79, 44.64 -86.33, 65.38 -89.65 M1.67 -0.16 C-8.16 -12.34, -70.99 -57.4, -60.51 -72.68 C-50.04 -87.95, 43.67 -88.94, 64.52 -91.81" stroke="#1e1e1e" stroke-width="4" fill="none"></path></g><g transform="translate(2552.1587301587297 1551.373015873015) rotate(0 1.8467078875795906 -45.61344258948688)"><path d="M41.72 -81.56 C47.6 -83.23, 52.15 -86.21, 64.52 -91.81 M41.72 -81.56 C49.08 -85.45, 56.21 -87.74, 64.52 -91.81" stroke="#1e1e1e" stroke-width="4" fill="none"></path></g><g transform="translate(2552.1587301587297 1551.373015873015) rotate(0 1.8467078875795906 -45.61344258948688)"><path d="M40.47 -98.62 C46.63 -96.6, 51.45 -95.91, 64.52 -91.81 M40.47 -98.62 C48.13 -96.88, 55.67 -93.57, 64.52 -91.81" stroke="#1e1e1e" stroke-width="4" fill="none"></path></g></g><mask></mask></g><g clip-path="url(#uidL0hQlBpO7mGGDbfNc1)"><g transform="translate(2635.098969959077 1433.5952380952372) rotate(0 69.281982421875 22.5)"><text x="69.281982421875" y="31.536" font-family="Virgil, Segoe UI Emoji" font-size="36px" fill="#1e1e1e" text-anchor="middle" style="white-space: pre;" direction="ltr" dominant-baseline="alphabetic">Product</text></g></g><g clip-path="url(#uidL0hQlBpO7mGGDbfNc1)"><g stroke-linecap="round"><g transform="translate(2563.855952380952 1840.373015873015) rotate(0 14.337804331698045 -25.5700998430342)"><path d="M1.03 -0.67 C-4.31 -7.62, -42.91 -32.88, -32.78 -41.56 C-22.65 -50.23, 46.08 -50.88, 61.82 -52.73 M0.12 1.59 C-5.32 -5.71, -44.39 -34.4, -33.71 -43.27 C-23.02 -52.14, 48.38 -50.21, 64.23 -51.62" stroke="#1e1e1e" stroke-width="4" fill="none"></path></g><g transform="translate(2563.855952380952 1840.373015873015) rotate(0 14.337804331698045 -25.5700998430342)"><path d="M40.99 -42.4 C45.44 -44.77, 53.44 -48.58, 64.23 -51.62 M40.99 -42.4 C48.15 -44.78, 54.23 -46.83, 64.23 -51.62" stroke="#1e1e1e" stroke-width="4" fill="none"></path></g><g transform="translate(2563.855952380952 1840.373015873015) rotate(0 14.337804331698045 -25.5700998430342)"><path d="M40.5 -59.5 C45.09 -57.76, 53.2 -57.46, 64.23 -51.62 M40.5 -59.5 C47.64 -57.31, 53.85 -54.8, 64.23 -51.62" stroke="#1e1e1e" stroke-width="4" fill="none"></path></g></g><mask></mask></g><g clip-path="url(#uidL0hQlBpO7mGGDbfNc1)"><g transform="translate(2644.008759150429 1772.4841269841263) rotate(0 48.14997100830078 22.5)"><text x="48.14997100830078" y="31.536" font-family="Virgil, Segoe UI Emoji" font-size="36px" fill="#1e1e1e" text-anchor="middle" style="white-space: pre;" direction="ltr" dominant-baseline="alphabetic">Offer</text></g></g><g transform="translate(10 10) rotate(0 23.078956604003906 8.75)"><text x="0" y="13.482" font-family="Assistant, Segoe UI Emoji" font-size="14px" fill="#999999" text-anchor="start" style="white-space: pre;" direction="ltr" dominant-baseline="alphabetic">Frame 3</text></g><rect transform="translate(10 30.5) rotate(0 2234.9999999999995 1177.4999999999998)" width="4469.999999999999px" height="2354.9999999999995px" rx="8" ry="8" fill="none" stroke="#bbb" stroke-width="2"></rect></svg>